<svg width="35" height="35" viewBox="0 0 35 35" fill="none" xmlns="http://www.w3.org/2000/svg">
<path d="M10.4591 1.0661C10.6295 1.06571 10.7998 1.06523 10.9702 1.06468C11.3825 1.06358 11.7948 1.06344 12.207 1.0638C12.5427 1.06408 12.8783 1.06398 13.2139 1.06361C13.262 1.06356 13.31 1.06351 13.3595 1.06346C13.4571 1.06335 13.5547 1.06325 13.6523 1.06314C14.5649 1.06221 15.4775 1.06257 16.3901 1.06336C17.2219 1.06404 18.0537 1.06316 18.8855 1.06152C19.743 1.05985 20.6005 1.0592 21.458 1.05965C21.938 1.05989 22.4181 1.05974 22.8982 1.05854C23.35 1.05742 23.8018 1.05776 24.2536 1.05904C24.4183 1.05929 24.5831 1.05908 24.7479 1.05836C25.9586 1.05347 27.1451 1.13748 28.2839 1.58505C28.3366 1.6052 28.3892 1.62535 28.4435 1.64612C30.5765 2.49218 32.3043 4.18914 33.2311 6.28255C33.3359 6.53228 33.4296 6.78491 33.5177 7.04098C33.5334 7.08627 33.5492 7.13155 33.5654 7.1782C33.9119 8.24932 33.9365 9.29657 33.9341 10.4113C33.9345 10.5765 33.935 10.7417 33.9355 10.9068C33.9366 11.3062 33.9367 11.7055 33.9364 12.1049C33.9361 12.4294 33.9362 12.754 33.9366 13.0786C33.9366 13.125 33.9367 13.1714 33.9367 13.2192C33.9368 13.3135 33.9369 13.4078 33.937 13.5021C33.938 14.383 33.9376 15.264 33.9368 16.1449C33.9361 16.9504 33.937 17.7559 33.9387 18.5614C33.9403 19.3903 33.941 20.2192 33.9405 21.0481C33.9403 21.5128 33.9404 21.9774 33.9416 22.4421C33.9427 22.8783 33.9424 23.3145 33.9411 23.7507C33.9409 23.9108 33.9411 24.0709 33.9418 24.231C33.9427 24.4494 33.9419 24.6677 33.9407 24.886C33.9414 24.9495 33.942 25.013 33.9427 25.0784C33.9384 25.458 33.8863 25.6754 33.633 25.9765C33.3719 26.2246 33.1625 26.2712 32.8127 26.2841C32.4629 26.2712 32.2535 26.2246 31.9924 25.9765C31.7012 25.6249 31.6798 25.3656 31.6844 24.9289C31.684 24.8653 31.6836 24.8016 31.6831 24.7361C31.6821 24.5231 31.683 24.3101 31.6838 24.0971C31.6834 23.9443 31.6829 23.7914 31.6823 23.6386C31.6813 23.3094 31.6811 22.9802 31.6816 22.6509C31.6823 22.1294 31.6811 21.6078 31.6797 21.0862C31.6778 20.3539 31.6769 19.6216 31.6766 18.8893C31.6766 18.8197 31.6766 18.8197 31.6766 18.7486C31.6766 18.7021 31.6766 18.6556 31.6766 18.6077C31.6764 17.9507 31.6759 17.2936 31.6751 16.6366C31.675 16.5905 31.675 16.5444 31.6749 16.4969C31.674 15.7243 31.6725 14.9517 31.6707 14.1792C31.6696 13.6618 31.6692 13.1444 31.6695 12.6271C31.6695 12.3034 31.669 11.9797 31.6683 11.656C31.6682 11.5072 31.6682 11.3584 31.6685 11.2096C31.6726 9.07032 31.4579 7.10698 29.9416 5.46872C29.8702 5.38915 29.8702 5.38915 29.7974 5.30797C28.5492 3.98227 26.832 3.41979 25.0486 3.34188C24.5946 3.32955 24.1406 3.33093 23.6865 3.33189C23.5361 3.3317 23.3857 3.33146 23.2353 3.33116C22.8305 3.33054 22.4257 3.33078 22.0209 3.33121C21.5951 3.33156 21.1692 3.33124 20.7434 3.33102C19.9829 3.33076 19.2225 3.33118 18.462 3.33188C17.7752 3.33249 17.0883 3.33238 16.4015 3.33175C15.6002 3.33102 14.7989 3.33075 13.9977 3.33115C13.5749 3.33137 13.152 3.3314 12.7292 3.33094C12.3315 3.33054 11.9338 3.33083 11.5361 3.33161C11.3911 3.33179 11.2461 3.33174 11.1011 3.33144C9.00049 3.32744 7.07483 3.57222 5.46896 5.05856C5.41591 5.10615 5.36287 5.15373 5.30821 5.20276C4.02075 6.41501 3.41916 8.1058 3.34982 9.84372C3.33796 10.3433 3.34045 10.8431 3.34098 11.3428C3.34088 11.4923 3.34076 11.6417 3.34061 11.7912C3.3403 12.1945 3.34042 12.5979 3.34064 13.0013C3.34081 13.4249 3.34065 13.8485 3.34054 14.2721C3.34042 14.9832 3.34058 15.6944 3.34091 16.4056C3.34128 17.2259 3.34116 18.0462 3.34078 18.8666C3.34047 19.5729 3.34043 20.2792 3.34061 20.9855C3.34072 21.4065 3.34073 21.8275 3.3405 22.2485C3.34031 22.6444 3.34045 23.0403 3.34084 23.4362C3.34093 23.5809 3.3409 23.7255 3.34075 23.8702C3.33936 25.3361 3.38904 26.6783 4.03342 28.0273C4.06355 28.0904 4.09369 28.1535 4.12474 28.2185C4.86495 29.6662 6.20799 30.7819 7.74592 31.2926C7.91194 31.3437 8.07846 31.3912 8.24606 31.4367C8.29657 31.4506 8.34707 31.4645 8.3991 31.4789C9.34652 31.7174 10.3504 31.6603 11.3195 31.6601C11.4746 31.6603 11.6296 31.6605 11.7847 31.6608C12.1169 31.6613 12.4492 31.6617 12.7815 31.6619C13.3068 31.6623 13.8322 31.6634 14.3576 31.6647C14.5378 31.6651 14.718 31.6656 14.8982 31.666C15.0335 31.6663 15.0335 31.6663 15.1715 31.6667C15.6366 31.6678 16.1017 31.6688 16.5668 31.6697C16.6134 31.6698 16.66 31.6699 16.708 31.67C17.4651 31.6715 18.2222 31.6722 18.9794 31.6727C19.7582 31.6733 20.537 31.6749 21.3159 31.6774C21.7526 31.6787 22.1893 31.6796 22.626 31.6792C23.0361 31.6789 23.4462 31.6799 23.8563 31.6818C24.0068 31.6822 24.1573 31.6822 24.3078 31.6818C24.5132 31.6811 24.7185 31.6822 24.9238 31.6837C24.9834 31.6831 25.0431 31.6825 25.1045 31.682C25.4741 31.6869 25.6826 31.7481 25.9768 31.9922C26.2248 32.2532 26.2714 32.4627 26.2844 32.8125C26.2714 33.1623 26.2248 33.3717 25.9768 33.6328C25.6169 33.9352 25.3372 33.9453 24.8881 33.9409C24.786 33.9416 24.786 33.9416 24.6818 33.9422C24.4539 33.9433 24.226 33.9425 23.9981 33.9416C23.8345 33.942 23.671 33.9425 23.5075 33.9431C23.1093 33.9442 22.7111 33.944 22.3129 33.9432C21.9886 33.9426 21.6644 33.9425 21.3401 33.9428C21.2939 33.9429 21.2477 33.9429 21.2001 33.9429C21.1062 33.943 21.0122 33.9431 20.9183 33.9432C20.0373 33.944 19.1564 33.9431 18.2754 33.9416C17.5221 33.9404 16.7689 33.9406 16.0156 33.9419C15.1392 33.9433 14.2627 33.9439 13.3863 33.9431C13.2925 33.943 13.1986 33.9429 13.1048 33.9428C13.0586 33.9428 13.0124 33.9427 12.9648 33.9427C12.6421 33.9424 12.3193 33.9428 11.9966 33.9435C11.5599 33.9443 11.1233 33.9437 10.6866 33.9422C10.5274 33.9418 10.3681 33.9419 10.2088 33.9425C9.01411 33.9466 7.83998 33.8564 6.71652 33.4149C6.66386 33.3947 6.6112 33.3746 6.55694 33.3538C4.42393 32.5078 2.69612 30.8108 1.76928 28.7174C1.6645 28.4677 1.57079 28.215 1.48276 27.959C1.45912 27.891 1.45912 27.891 1.43501 27.8217C1.08352 26.7351 1.06399 25.6719 1.06634 24.541C1.06595 24.3707 1.06547 24.2003 1.06492 24.03C1.06383 23.6177 1.06369 23.2054 1.06405 22.7931C1.06432 22.4575 1.06422 22.1219 1.06386 21.7862C1.06381 21.7382 1.06375 21.6902 1.0637 21.6407C1.0636 21.5431 1.06349 21.4455 1.06339 21.3479C1.06245 20.4353 1.06282 19.5227 1.06361 18.6101C1.06428 17.7783 1.0634 16.9465 1.06176 16.1146C1.06009 15.2572 1.05944 14.3997 1.05989 13.5422C1.06013 13.0621 1.05999 12.5821 1.05878 12.102C1.05766 11.6502 1.058 11.1984 1.05928 10.7466C1.05953 10.5818 1.05933 10.4171 1.05861 10.2523C1.05372 9.04162 1.13772 7.85509 1.58529 6.71628C1.60545 6.66361 1.6256 6.61095 1.64636 6.55669C2.49242 4.42369 4.18938 2.69587 6.2828 1.76903C6.53252 1.66425 6.78515 1.57054 7.04123 1.48251C7.10915 1.45888 7.10915 1.45888 7.17845 1.43476C8.26504 1.08328 9.32824 1.06374 10.4591 1.0661Z" fill="#C8C8C8"/>
<path d="M22.9109 8.66291C24.7694 10.312 26.0812 12.6724 26.2598 15.1789C26.3292 16.4149 26.3202 17.6703 25.9764 18.8671C25.9606 18.9228 25.9448 18.9784 25.9286 19.0357C25.5716 20.2481 25.0016 21.4399 24.199 22.4218C24.3089 22.6963 24.5021 22.8796 24.7089 23.0831C24.7474 23.1215 24.7859 23.1599 24.8256 23.1995C24.9547 23.3282 25.0844 23.4564 25.214 23.5847C25.3066 23.6769 25.3993 23.7691 25.4919 23.8613C25.6914 24.0599 25.8911 24.2584 26.091 24.4566C26.4071 24.7702 26.7226 25.0844 27.0379 25.3986C27.9349 26.2923 28.8326 27.1851 29.7309 28.0773C30.227 28.57 30.7226 29.0633 31.2177 29.557C31.531 29.8695 31.845 30.1813 32.1594 30.4927C32.355 30.6867 32.55 30.8813 32.7449 31.076C32.8353 31.1661 32.9259 31.256 33.0168 31.3456C33.141 31.4681 33.2643 31.5914 33.3875 31.715C33.4235 31.7501 33.4595 31.7853 33.4966 31.8215C33.7741 32.1028 33.9472 32.3874 33.9963 32.7844C33.9621 33.1955 33.8488 33.4373 33.5565 33.7308C33.2407 33.993 32.9516 33.9879 32.5624 33.9527C32.1631 33.8369 31.87 33.5304 31.5845 33.2418C31.5262 33.1836 31.5262 33.1836 31.4667 33.1243C31.3373 32.9951 31.2084 32.8654 31.0795 32.7358C30.9865 32.6427 30.8935 32.5498 30.8005 32.4568C30.5485 32.2049 30.297 31.9525 30.0455 31.7001C29.7824 31.4362 29.519 31.1727 29.2556 30.9091C28.7571 30.4102 28.2589 29.9109 27.7609 29.4115C27.1938 28.8429 26.6263 28.2746 26.0588 27.7064C24.8916 26.5378 23.7248 25.3686 22.5584 24.1992C22.3204 24.2908 22.137 24.3857 21.9346 24.541C19.7947 26.0547 17.1209 26.564 14.5473 26.1875C11.8847 25.7219 9.48013 24.2032 7.91301 21.9946C6.38546 19.757 5.82943 17.03 6.28647 14.364C6.64126 12.5122 7.46715 10.8154 8.74981 9.43355C8.78612 9.39425 8.82242 9.35495 8.85983 9.31446C12.5662 5.34829 18.8462 5.12394 22.9109 8.66291ZM10.3221 11.0784C8.97318 12.5989 8.30796 14.6441 8.3976 16.6643C8.5402 18.7471 9.48595 20.7147 11.0453 22.1081C12.6423 23.4651 14.7132 24.1925 16.8098 24.0365C19.0075 23.8232 20.8157 22.8164 22.285 21.1914C22.4636 20.9731 22.6164 20.7482 22.7635 20.5078C22.8075 20.4387 22.8514 20.3696 22.8967 20.2984C23.921 18.6128 24.2727 16.6171 23.9128 14.6716C23.8747 14.5198 23.8334 14.3687 23.7889 14.2187C23.7552 14.096 23.7552 14.096 23.7208 13.9709C23.1181 11.9688 21.7229 10.3157 19.9081 9.30543C16.6034 7.55097 12.8411 8.45333 10.3221 11.0784Z" fill="#C8C8C8"/>
</svg>
