<svg width="64" height="64" viewBox="0 0 64 64" fill="none" xmlns="http://www.w3.org/2000/svg">
<g clip-path="url(#clip0_147_3744)">
<path d="M25.0001 1.12499C25.109 1.18091 25.218 1.23682 25.3302 1.29443C26.8267 2.13002 27.7349 3.37291 28.2501 4.99999C28.3481 5.50459 28.4018 5.994 28.4142 6.50781C28.4212 6.69561 28.4212 6.69561 28.4283 6.8872C28.277 8.27446 27.6768 9.4672 27.0079 10.6719C26.9242 10.8252 26.8405 10.9785 26.757 11.132C26.1737 12.1999 25.5761 13.2599 24.9734 14.317C24.4117 15.3037 23.8692 16.3001 23.3331 17.3009C22.8216 18.253 22.287 19.1854 21.7501 20.125C28.4326 20.125 35.1151 20.125 42.0001 20.125C40.6026 17.5263 40.6026 17.5263 39.1779 14.9434C38.7234 14.1294 38.2713 13.3141 37.8194 12.4986C37.4625 11.8552 37.1048 11.2124 36.7403 10.5732C36.6832 10.4724 36.6261 10.3717 36.5673 10.2678C36.4647 10.0872 36.3614 9.90695 36.2572 9.72729C35.6984 8.73929 35.4331 7.83275 35.4532 6.69531C35.4545 6.59105 35.4558 6.4868 35.4571 6.37939C35.4763 5.61734 35.5556 4.94972 35.8751 4.24999C35.9239 4.13913 35.9728 4.02828 36.0231 3.91406C36.8099 2.30917 38.0118 1.41441 39.6251 0.749993C41.134 0.312413 42.8721 0.547297 44.2501 1.24999C45.8401 2.17646 46.6962 3.5376 47.5236 5.14062C47.6047 5.29526 47.6859 5.44982 47.7674 5.6043C47.9327 5.91816 48.0974 6.23229 48.2618 6.54663C48.6132 7.21698 48.9745 7.88194 49.3361 8.54687C49.4025 8.66937 49.4689 8.79187 49.5373 8.91809C50.0402 9.84521 50.5458 10.7709 51.0515 11.6965C51.5377 12.5875 52.0195 13.4809 52.5001 14.375C53.0624 15.4208 53.6268 16.4654 54.1954 17.5078C54.2847 17.6716 54.2847 17.6716 54.3758 17.8386C54.4325 17.9423 54.4891 18.046 54.5475 18.1528C54.6285 18.3013 54.6285 18.3013 54.7111 18.4527C54.8247 18.6587 54.9399 18.8638 55.0562 19.0683C55.1136 19.1693 55.171 19.2704 55.2301 19.3745C55.282 19.4648 55.3338 19.5551 55.3873 19.6482C55.5001 19.875 55.5001 19.875 55.5001 20.125C55.6417 20.1221 55.6417 20.1221 55.7861 20.119C56.222 20.1112 56.6579 20.1063 57.0939 20.1016C57.2423 20.0984 57.3907 20.0953 57.5436 20.092C59.4197 20.0767 61.006 20.5243 62.4064 21.8125C63.7056 23.176 64.0635 24.6953 64.0343 26.519C63.971 28.1382 63.1471 29.433 62.0072 30.5421C61.7252 30.7702 61.4458 30.8958 61.1179 31.049C60.7277 31.2815 60.5372 31.4162 60.352 31.8346C60.2586 32.2637 60.202 32.6853 60.1552 33.122C60.1331 33.2882 60.1104 33.4543 60.0872 33.6203C60.0379 33.977 59.9916 34.334 59.9472 34.6914C59.8765 35.2518 59.7927 35.8097 59.7054 36.3677C59.6906 36.4622 59.6759 36.5567 59.6607 36.6541C59.6303 36.8484 59.5998 37.0426 59.5694 37.2369C59.4904 37.745 59.414 38.2535 59.3375 38.7619C59.3056 38.9737 59.2737 39.1854 59.2418 39.3972C59.2177 39.5571 59.2177 39.5571 59.1931 39.7204C59.1086 40.2802 59.0237 40.84 58.9389 41.3998C58.6517 43.2946 58.365 45.1894 58.0792 47.0843C57.9202 48.1383 57.7608 49.1923 57.6007 50.2462C57.5002 50.9083 57.4003 51.5704 57.3009 52.2326C57.2389 52.6444 57.1763 53.0561 57.1136 53.4677C57.0849 53.6569 57.0564 53.8462 57.0282 54.0355C56.5904 56.9709 56.5904 56.9709 55.9064 58.2734C55.8407 58.4009 55.8407 58.4009 55.7738 58.531C55.4169 59.2067 55.014 59.8073 54.5001 60.375C54.4291 60.4575 54.358 60.54 54.2848 60.625C52.7831 62.2574 50.6077 63.2483 48.4061 63.3985C48.0463 63.4076 47.6872 63.4095 47.3273 63.4084C47.1226 63.4093 47.1226 63.4093 46.9137 63.4101C46.46 63.4117 46.0063 63.4115 45.5525 63.4113C45.2257 63.4121 44.8989 63.4129 44.5721 63.4139C43.7786 63.4159 42.9851 63.4166 42.1915 63.4168C41.5458 63.4169 40.9001 63.4174 40.2543 63.4182C38.4194 63.4204 36.5845 63.4215 34.7495 63.4214C34.6508 63.4213 34.5521 63.4213 34.4504 63.4213C34.3021 63.4213 34.3021 63.4213 34.1508 63.4213C32.5503 63.4212 30.9497 63.4236 29.3491 63.4271C27.7017 63.4307 26.0542 63.4324 24.4067 63.4322C23.4834 63.4321 22.5601 63.4328 21.6368 63.4355C20.7678 63.438 19.8988 63.4379 19.0298 63.4361C18.7122 63.4359 18.3946 63.4364 18.077 63.438C15.0478 63.4515 12.4654 63.1112 10.1251 61C9.9946 60.8869 9.9946 60.8869 9.86144 60.7715C8.44047 59.4607 7.61257 57.644 7.28146 55.7669C7.26059 55.6501 7.23972 55.5334 7.21821 55.413C6.86825 53.4128 6.57567 51.4026 6.27203 49.395C6.17948 48.7837 6.08644 48.1726 5.99344 47.5614C5.79812 46.2773 5.60328 44.9932 5.40855 43.709C5.11429 41.7685 4.81964 39.828 4.52453 37.8876C4.41414 37.1616 4.30401 36.4356 4.19409 35.7096C4.12594 35.2599 4.0576 34.8101 3.98921 34.3604C3.95753 34.1518 3.92594 33.9432 3.89443 33.7345C3.85148 33.4502 3.80823 33.1659 3.76491 32.8816C3.74079 32.7224 3.71666 32.5633 3.69181 32.3994C3.62218 31.7516 3.62218 31.7516 3.22228 31.2949C3.10514 31.2285 2.988 31.1621 2.8673 31.0937C1.51605 30.2693 0.471835 29.0791 0.0591983 27.52C-0.221488 25.6434 -0.0742934 23.9559 1.0465 22.3828C2.05504 21.1058 3.27197 20.3976 4.87512 20.125C5.1414 20.1151 5.40797 20.1115 5.67443 20.1128C5.89982 20.1134 5.89982 20.1134 6.12976 20.114C6.28549 20.1151 6.44122 20.1161 6.60168 20.1172C6.75983 20.1177 6.91798 20.1183 7.08093 20.1189C7.47066 20.1204 7.86039 20.1224 8.25012 20.125C8.28471 20.0346 8.3193 19.9442 8.35494 19.851C8.4938 19.5153 8.64983 19.2031 8.82287 18.8838C8.88697 18.7653 8.95107 18.6469 9.01711 18.5248C9.08627 18.398 9.15543 18.2712 9.22668 18.1406C9.33537 17.9407 9.33537 17.9407 9.44625 17.7367C9.9925 16.7351 10.5509 15.7408 11.1146 14.749C11.662 13.7846 12.1997 12.8151 12.7345 11.8437C12.8194 11.6895 12.9043 11.5353 12.9892 11.3811C13.0313 11.3047 13.0734 11.2283 13.1167 11.1495C13.1588 11.0731 13.2009 10.9967 13.2443 10.918C13.3074 10.8033 13.3074 10.8033 13.3718 10.6863C13.9665 9.60654 14.5651 8.52895 15.1652 7.45214C15.479 6.88878 15.7905 6.3242 16.1007 5.75878C16.2547 5.47981 16.4086 5.20083 16.5626 4.92187C16.6315 4.79526 16.7004 4.66865 16.7714 4.5382C17.7953 2.69023 19.0179 1.28453 21.1174 0.680261C22.3933 0.406652 23.8443 0.530513 25.0001 1.12499ZM19.6251 4.62499C19.3405 5.06872 19.0998 5.53112 18.8595 5.99999C18.7173 6.26998 18.5749 6.53984 18.4322 6.80956C18.3605 6.94592 18.2887 7.08228 18.2148 7.22277C17.8867 7.83753 17.5414 8.44207 17.1954 9.04687C16.6153 10.0651 16.0528 11.0916 15.5001 12.125C14.8842 13.2765 14.2524 14.4172 13.6062 15.5519C12.7502 17.0585 11.9001 18.5749 11.1251 20.125C13.7239 20.125 16.3226 20.125 19.0001 20.125C19.7274 18.816 20.4525 17.5087 21.1564 16.1875C21.2772 15.9612 21.3981 15.735 21.519 15.5088C21.6009 15.3556 21.6827 15.2025 21.7645 15.0493C22.1773 14.2767 22.5925 13.5055 23.0079 12.7344C23.0785 12.6031 23.1491 12.4718 23.2218 12.3365C23.5596 11.7085 23.8985 11.0812 24.2411 10.4559C24.3636 10.2322 24.4857 10.0084 24.6078 9.78448C24.7611 9.50329 24.9151 9.22246 25.07 8.94207C25.6517 7.87284 26.117 6.88634 25.7804 5.65283C25.354 4.4021 24.7841 3.8614 23.6251 3.24999C22.0306 2.7185 20.6446 3.39785 19.6251 4.62499ZM38.8282 4.14843C38.163 5.02539 37.9444 5.9041 37.9459 6.99316C38.0868 7.9856 38.599 8.81087 39.0939 9.66406C39.2408 9.92066 39.3876 10.1773 39.5343 10.4341C39.6108 10.5677 39.6873 10.7013 39.7661 10.8389C40.1567 11.5251 40.5393 12.2156 40.922 12.9062C40.9997 13.0463 41.0775 13.1864 41.1576 13.3307C41.5202 13.9841 41.8823 14.6378 42.2437 15.2919C42.3667 15.5144 42.4898 15.7369 42.613 15.9593C42.7652 16.2344 42.9172 16.5095 43.0689 16.7848C43.2139 17.0467 43.3635 17.3062 43.5171 17.5631C43.7014 17.9086 43.8222 18.2017 43.9431 18.5684C44.1811 19.2027 44.4245 19.7374 45.0001 20.125C46.1972 20.4612 47.5069 20.3347 48.7365 20.2709C49.2031 20.249 49.6699 20.2394 50.1368 20.2288C51.0503 20.2061 51.9625 20.1699 52.8751 20.125C52.758 19.8887 52.6406 19.6525 52.5231 19.4163C52.425 19.219 52.425 19.219 52.325 19.0177C52.0274 18.433 51.7023 17.8654 51.3751 17.2969C50.7763 16.2476 50.1946 15.1905 49.6251 14.125C49.0086 12.9723 48.3763 11.8302 47.729 10.6945C47.2368 9.82878 46.7607 8.95524 46.2892 8.07812C46.0269 7.59331 45.7638 7.10904 45.5001 6.62499C45.4138 6.46565 45.4138 6.46565 45.3257 6.30309C44.2669 4.32865 44.2669 4.32865 42.4112 3.17577C41.0362 2.93173 39.8187 3.10606 38.8282 4.14843ZM3.12512 23.75C2.50799 24.6885 2.2438 25.4963 2.37512 26.625C2.63246 27.3821 3.01322 27.9799 3.62512 28.5C3.72566 28.5902 3.82621 28.6805 3.9298 28.7734C4.56414 29.2221 5.16697 29.2814 5.9303 29.2825C6.06747 29.2832 6.06747 29.2832 6.20742 29.2839C6.51402 29.2852 6.8206 29.2847 7.1272 29.2843C7.34918 29.2848 7.57116 29.2855 7.79314 29.2863C8.40329 29.288 9.01344 29.2882 9.6236 29.2882C10.2816 29.2884 10.9396 29.29 11.5976 29.2915C13.0364 29.2943 14.4751 29.2953 15.9139 29.2959C16.8123 29.2963 17.7106 29.2971 18.6089 29.2981C21.096 29.3005 23.5831 29.3025 26.0702 29.3029C26.2294 29.3029 26.3886 29.303 26.5525 29.303C26.8752 29.303 27.1979 29.3031 27.5205 29.3031C27.7608 29.3032 27.7608 29.3032 28.0059 29.3032C28.1663 29.3032 28.3266 29.3032 28.4919 29.3033C31.0909 29.3037 33.69 29.3071 36.289 29.3118C38.9573 29.3165 41.6256 29.3189 44.2939 29.319C45.7921 29.319 47.2902 29.3201 48.7884 29.3237C50.0641 29.3268 51.3397 29.3277 52.6153 29.3258C53.2661 29.3249 53.9168 29.325 54.5676 29.3279C55.1637 29.3304 55.7596 29.3301 56.3557 29.3275C56.571 29.3271 56.7864 29.3277 57.0017 29.3295C58.2883 29.3394 59.3978 29.301 60.3907 28.3781C61.0853 27.6501 61.3923 26.9628 61.4298 25.9531C61.4023 24.8629 61.0453 24.0106 60.2501 23.25C59.3242 22.6862 58.5565 22.4847 57.4743 22.4832C57.3845 22.4829 57.2947 22.4826 57.2022 22.4823C56.9005 22.4815 56.5988 22.4815 56.2971 22.4816C56.0789 22.4812 55.8608 22.4807 55.6426 22.4802C55.0424 22.479 54.4422 22.4785 53.842 22.4782C53.1949 22.4777 52.5478 22.4765 51.9007 22.4754C50.3377 22.4729 48.7747 22.4717 47.2117 22.4705C46.4757 22.47 45.7397 22.4693 45.0037 22.4687C42.5571 22.4665 40.1106 22.4647 37.664 22.4638C37.0292 22.4636 36.3943 22.4633 35.7595 22.4631C35.6017 22.463 35.4439 22.463 35.2813 22.4629C32.7248 22.4619 30.1682 22.4587 27.6117 22.4547C24.9871 22.4505 22.3624 22.4483 19.7378 22.4479C18.2641 22.4476 16.7905 22.4465 15.3168 22.4433C14.0618 22.4406 12.8069 22.4396 11.552 22.4408C10.9118 22.4414 10.2717 22.4411 9.63151 22.4387C9.04502 22.4365 8.45857 22.4366 7.87208 22.4386C7.66035 22.4389 7.44861 22.4383 7.23689 22.4368C5.72099 22.4269 4.17461 22.5037 3.12512 23.75ZM6.25012 31.75C6.98824 37.0282 6.98824 37.0282 7.74426 42.3037C7.77083 42.4869 7.79741 42.67 7.82399 42.8532C7.93433 43.6135 8.04475 44.3738 8.15543 45.1341C8.31066 46.2004 8.46535 47.2668 8.61933 48.3333C8.72996 49.0992 8.84118 49.8651 8.95284 50.6309C9.01867 51.0825 9.08427 51.5342 9.14922 51.986C9.22094 52.4847 9.29389 52.9833 9.36694 53.4819C9.38759 53.6268 9.40825 53.7717 9.42953 53.921C9.76158 56.1655 10.346 58.0515 12.2003 59.5049C13.6865 60.5114 15.2094 60.7691 16.9627 60.7676C17.0961 60.7679 17.2294 60.7683 17.3668 60.7687C17.8129 60.7698 18.2589 60.77 18.705 60.7701C19.0252 60.7707 19.3453 60.7713 19.6655 60.772C20.5348 60.7737 21.4042 60.7745 22.2735 60.775C22.8169 60.7754 23.3604 60.7759 23.9038 60.7765C25.4102 60.778 26.9166 60.7793 28.423 60.7797C28.5193 60.7797 28.6156 60.7797 28.7149 60.7798C28.8114 60.7798 28.9079 60.7798 29.0074 60.7799C29.203 60.7799 29.3986 60.78 29.5942 60.78C29.6912 60.7801 29.7882 60.7801 29.8882 60.7801C31.4592 60.7806 33.0302 60.7828 34.6012 60.7857C36.2165 60.7887 37.8317 60.7902 39.447 60.7904C40.353 60.7905 41.2589 60.7912 42.1649 60.7935C43.0175 60.7956 43.8701 60.7958 44.7227 60.7947C45.0348 60.7946 45.347 60.7951 45.6591 60.7964C48.2683 60.8061 50.4929 60.685 52.4772 58.7769C52.6123 58.6398 52.6123 58.6398 52.7501 58.5C52.8234 58.428 52.8967 58.3559 52.9723 58.2817C54.4724 56.69 54.5445 54.1763 54.841 52.1122C54.8731 51.8918 54.9051 51.6715 54.9373 51.4512C55.0234 50.8592 55.109 50.2671 55.1944 49.675C55.2842 49.0536 55.3744 48.4323 55.4647 47.811C55.6158 46.7699 55.7665 45.7288 55.917 44.6876C56.1102 43.3502 56.3042 42.0128 56.4983 40.6754C56.6654 39.5245 56.8321 38.3735 56.9988 37.2225C57.0524 36.8526 57.1061 36.4828 57.1597 36.1129C57.2437 35.5335 57.3275 34.9541 57.4112 34.3747C57.442 34.1617 57.4728 33.9488 57.5037 33.7358C57.5457 33.4462 57.5875 33.1566 57.6293 32.8669C57.6527 32.7046 57.6762 32.5422 57.7004 32.375C57.7556 32.0217 57.7556 32.0217 57.7501 31.75C40.7551 31.75 23.7601 31.75 6.25012 31.75Z" fill="white"/>
<path d="M18.5939 36.8984C18.9279 37.1675 18.9941 37.3459 19.1252 37.75C19.157 38.0532 19.157 38.0532 19.1578 38.3753C19.1587 38.4981 19.1596 38.621 19.1605 38.7475C19.1602 38.8809 19.1598 39.0142 19.1595 39.1516C19.1605 39.3639 19.1605 39.3639 19.1615 39.5805C19.1632 40.0483 19.1631 40.5161 19.1628 40.9839C19.1633 41.3091 19.1638 41.6343 19.1644 41.9595C19.1653 42.6411 19.1653 43.3228 19.1647 44.0044C19.1639 44.7914 19.1654 45.5783 19.1681 46.3652C19.1706 47.1235 19.1709 47.8817 19.1705 48.64C19.1706 48.9621 19.1712 49.2842 19.1725 49.6063C19.174 50.0566 19.1732 50.5069 19.1717 50.9572C19.1732 51.1568 19.1732 51.1568 19.1746 51.3605C19.1698 52.0385 19.1481 52.5473 18.7502 53.125C18.2916 53.4307 17.9082 53.4799 17.3752 53.375C17.0388 53.103 16.8183 52.8862 16.6252 52.5C16.6128 52.3034 16.6083 52.1064 16.6076 51.9094C16.6069 51.7848 16.6062 51.6602 16.6055 51.5318C16.6053 51.3946 16.6052 51.2574 16.6051 51.116C16.6044 50.9719 16.6038 50.8278 16.6032 50.6793C16.6013 50.2008 16.6005 49.7222 16.5998 49.2436C16.5993 48.9958 16.5987 48.7479 16.5982 48.5C16.5967 47.8091 16.5958 47.1183 16.5953 46.4274C16.5948 45.534 16.5926 44.6406 16.589 43.7472C16.5863 43.0566 16.585 42.3661 16.5848 41.6755C16.5847 41.2631 16.5838 40.8506 16.5817 40.4382C16.5796 39.9779 16.5798 39.5177 16.5806 39.0574C16.5795 38.921 16.5783 38.7845 16.5771 38.644C16.5835 37.4886 16.5835 37.4886 17.0002 37C17.5045 36.6348 18.036 36.6575 18.5939 36.8984Z" fill="white"/>
<path d="M25.6486 36.8203C26.0001 37.0991 26.1297 37.4545 26.2501 37.8749C26.3032 38.3436 26.3014 38.8087 26.2986 39.28C26.2993 39.4189 26.3 39.5578 26.3006 39.701C26.3023 40.1587 26.3012 40.6164 26.2999 41.0742C26.3002 41.3931 26.3005 41.712 26.301 42.031C26.3016 42.6988 26.3008 43.3667 26.299 44.0345C26.297 44.805 26.2976 45.5755 26.2997 46.346C26.3016 47.0893 26.3014 47.8326 26.3003 48.5759C26.3001 48.8912 26.3004 49.2066 26.3012 49.522C26.3022 49.963 26.3007 50.4039 26.2986 50.8449C26.2998 51.0398 26.2998 51.0398 26.3009 51.2385C26.2946 51.9619 26.2359 52.4911 25.8751 53.1249C25.414 53.4324 25.0356 53.4616 24.5001 53.3749C24.0697 53.1094 23.9106 52.9814 23.7501 52.4999C23.7379 52.2986 23.7327 52.0969 23.7317 51.8952C23.7308 51.7706 23.7299 51.646 23.729 51.5176C23.7287 51.3811 23.7283 51.2445 23.728 51.1038C23.7272 50.9599 23.7264 50.8159 23.7255 50.6676C23.723 50.1903 23.7216 49.7131 23.7203 49.2358C23.7198 49.0729 23.7193 48.9101 23.7188 48.7424C23.7164 47.9696 23.7146 47.1969 23.7136 46.4241C23.7124 45.5328 23.7091 44.6416 23.704 43.7503C23.7003 43.0609 23.6984 42.3715 23.698 41.6821C23.6977 41.2706 23.6963 40.8591 23.6934 40.4476C23.6904 39.9882 23.6905 39.529 23.6914 39.0696C23.6898 38.9338 23.6882 38.798 23.6865 38.6581C23.6917 37.9052 23.7299 37.439 24.2501 36.8749C24.7372 36.7126 25.149 36.6918 25.6486 36.8203Z" fill="white"/>
<path d="M46.3361 36.75C46.4294 36.7629 46.5227 36.7758 46.6188 36.7891C46.921 36.8904 47.0527 37.0018 47.2502 37.25C47.3719 37.6153 47.3914 37.8502 47.3927 38.2306C47.3938 38.4178 47.3938 38.4178 47.3949 38.6087C47.395 38.7455 47.3952 38.8822 47.3953 39.0231C47.3959 39.1673 47.3965 39.3114 47.3972 39.4599C47.399 39.9378 47.3999 40.4157 47.4006 40.8936C47.4011 41.1413 47.4016 41.389 47.4022 41.6367C47.4036 42.327 47.4046 43.0172 47.405 43.7075C47.4056 44.5998 47.4078 45.4921 47.4114 46.3845C47.4141 47.0745 47.4154 47.7645 47.4155 48.4546C47.4157 48.8666 47.4166 49.2786 47.4186 49.6906C47.4208 50.1503 47.4205 50.6099 47.4197 51.0695C47.4209 51.2058 47.422 51.342 47.4232 51.4824C47.4167 52.6472 47.4167 52.6472 47.0002 53.125C46.6041 53.389 46.3586 53.4164 45.8918 53.4448C45.4692 53.3341 45.2193 53.1176 45.0002 52.75C44.9046 52.2602 44.9135 51.7753 44.9173 51.2776C44.916 51.1285 44.9147 50.9795 44.9134 50.8259C44.9106 50.4181 44.9106 50.0104 44.9121 49.6026C44.913 49.2618 44.9119 48.921 44.9109 48.5802C44.9084 47.7762 44.9091 46.9723 44.9118 46.1683C44.9146 45.3394 44.9124 44.5106 44.9077 43.6818C44.9038 42.9694 44.9028 42.2571 44.9042 41.5448C44.905 41.1196 44.9047 40.6945 44.9018 40.2694C44.8993 39.7953 44.9016 39.3215 44.9051 38.8474C44.9025 38.6366 44.9025 38.6366 44.8999 38.4215C44.9137 37.4961 44.9137 37.4961 45.1627 37.1472C45.5418 36.8165 45.8377 36.6665 46.3361 36.75Z" fill="white"/>
<path d="M39.1719 36.7656C39.2683 36.7711 39.3646 36.7766 39.4639 36.7822C39.9035 36.9247 40.0126 37.1005 40.25 37.5C40.3255 37.9827 40.3183 38.4617 40.3147 38.9494C40.3156 39.096 40.3165 39.2427 40.3174 39.3937C40.3196 39.8784 40.3181 40.363 40.3165 40.8476C40.3166 41.1843 40.3173 41.5211 40.3179 41.8578C40.3188 42.5635 40.3176 43.2692 40.3152 43.9749C40.3125 44.7901 40.3134 45.6053 40.3161 46.4205C40.3184 47.1212 40.3187 47.8218 40.3174 48.5225C40.3166 48.9406 40.3167 49.3587 40.3182 49.7769C40.3195 50.2431 40.3175 50.7093 40.3147 51.1755C40.3158 51.3137 40.3168 51.4519 40.3178 51.5943C40.3074 52.5298 40.3074 52.5298 40.0116 53.0202C39.5515 53.4243 39.2309 53.4063 38.625 53.375C38.2025 53.2265 38.1335 53.1377 37.875 52.75C37.8429 52.4674 37.8429 52.4674 37.8416 52.1301C37.8406 52.0022 37.8395 51.8743 37.8384 51.7425C37.8385 51.6022 37.8386 51.4619 37.8387 51.3174C37.8379 51.1696 37.8371 51.0218 37.8362 50.8696C37.8342 50.4641 37.8334 50.0586 37.8332 49.6531C37.8331 49.3997 37.8325 49.1463 37.8319 48.893C37.8295 48.0088 37.8285 47.1247 37.8287 46.2405C37.8289 45.4166 37.8262 44.5928 37.8223 43.7689C37.819 43.0614 37.8177 42.3538 37.8178 41.6463C37.8179 41.2238 37.8172 40.8013 37.8145 40.3788C37.8121 39.9075 37.8128 39.4362 37.8143 38.9649C37.8129 38.8251 37.8115 38.6853 37.8101 38.5414C37.8178 37.5953 37.8178 37.5953 38.1132 37.1037C38.4917 36.7731 38.6804 36.728 39.1719 36.7656Z" fill="white"/>
<path d="M32.3751 36.75C32.7193 36.9745 32.9409 37.1316 33.1251 37.5C33.1378 37.6997 33.1426 37.9 33.1435 38.1001C33.1444 38.2268 33.1453 38.3535 33.1462 38.484C33.1467 38.6934 33.1467 38.6934 33.1472 38.9069C33.1481 39.0535 33.1489 39.2 33.1497 39.351C33.1522 39.8377 33.1537 40.3244 33.1549 40.8111C33.1554 40.9786 33.1559 41.1461 33.1565 41.3137C33.1588 42.1007 33.1606 42.8878 33.1617 43.6749C33.1629 44.5835 33.1662 45.492 33.1712 46.4005C33.175 47.1028 33.1768 47.805 33.1773 48.5073C33.1775 48.9267 33.1787 49.3461 33.1818 49.7655C33.1848 50.2336 33.1847 50.7015 33.1839 51.1696C33.1855 51.3084 33.1871 51.4472 33.1887 51.5902C33.1823 52.5299 33.1823 52.5299 32.8871 53.0207C32.5443 53.3208 32.4226 53.3705 31.9611 53.4141C31.4282 53.3689 31.2476 53.2475 30.8751 52.875C30.7218 52.5685 30.7334 52.3678 30.7317 52.025C30.7308 51.8983 30.7299 51.7716 30.729 51.641C30.7287 51.5015 30.7283 51.3619 30.728 51.2181C30.7272 51.0716 30.7264 50.925 30.7255 50.774C30.723 50.2873 30.7216 49.8007 30.7203 49.314C30.7198 49.1465 30.7193 48.9789 30.7188 48.8114C30.7164 48.0243 30.7146 47.2372 30.7136 46.4501C30.7124 45.5416 30.7091 44.633 30.704 43.7245C30.7003 43.0223 30.6984 42.32 30.698 41.6178C30.6977 41.1984 30.6966 40.779 30.6934 40.3595C30.6904 39.8915 30.6905 39.4235 30.6914 38.9554C30.6898 38.8166 30.6882 38.6779 30.6865 38.5349C30.6929 37.5951 30.6929 37.5951 30.9882 37.1044C31.4473 36.7024 31.7692 36.6987 32.3751 36.75Z" fill="white"/>
</g>
<defs>
<clipPath id="clip0_147_3744">
<rect width="64" height="64" fill="white"/>
</clipPath>
</defs>
</svg>
