<svg width="26" height="25" viewBox="0 0 26 25" fill="none" xmlns="http://www.w3.org/2000/svg">
<g clip-path="url(#clip0_147_2384)">
<path d="M10.2658 0.439428C10.3083 0.461269 10.3509 0.48311 10.3947 0.505613C10.9792 0.832017 11.334 1.31752 11.5353 1.9531C11.5736 2.15021 11.5946 2.34138 11.5994 2.54209C11.6021 2.61545 11.6021 2.61545 11.6049 2.69029C11.5458 3.23219 11.3113 3.6981 11.0501 4.16868C11.0173 4.22856 10.9847 4.28847 10.952 4.3484C10.7242 4.76555 10.4907 5.17963 10.2553 5.59257C10.0359 5.97797 9.82398 6.36721 9.61456 6.75814C9.41477 7.13006 9.20595 7.49428 8.99622 7.8613C11.6066 7.8613 14.2169 7.8613 16.9064 7.8613C16.3605 6.8462 16.3605 6.8462 15.804 5.83725C15.6264 5.51928 15.4498 5.20078 15.2733 4.88225C15.1339 4.63091 14.9942 4.37982 14.8518 4.13015C14.8295 4.09078 14.8072 4.05141 14.7842 4.01084C14.7441 3.94028 14.7038 3.86988 14.663 3.7997C14.4448 3.41376 14.3411 3.05965 14.349 2.61533C14.3495 2.57461 14.35 2.53388 14.3505 2.49193C14.358 2.19425 14.389 1.93346 14.5138 1.66013C14.5329 1.61683 14.5519 1.57352 14.5716 1.52891C14.879 0.901997 15.3485 0.55248 15.9786 0.292943C16.568 0.122013 17.247 0.213765 17.7853 0.488256C18.4064 0.850157 18.7408 1.38185 19.064 2.00803C19.0957 2.06844 19.1274 2.12881 19.1592 2.18916C19.2238 2.31176 19.2881 2.43446 19.3524 2.55725C19.4896 2.81911 19.6308 3.07886 19.772 3.3386C19.7979 3.38645 19.8239 3.4343 19.8506 3.4836C20.047 3.84576 20.2445 4.20735 20.4421 4.56891C20.632 4.91697 20.8202 5.26597 21.0079 5.61521C21.2276 6.02373 21.448 6.43179 21.6702 6.83897C21.7051 6.90293 21.7051 6.90293 21.7406 6.96819C21.7628 7.00869 21.7849 7.0492 21.8077 7.09093C21.8393 7.14891 21.8393 7.14891 21.8716 7.20806C21.916 7.28852 21.961 7.36866 22.0064 7.44853C22.0288 7.488 22.0512 7.52748 22.0743 7.56814C22.0946 7.60342 22.1149 7.6387 22.1357 7.67504C22.1798 7.76365 22.1798 7.76365 22.1798 7.8613C22.2351 7.86015 22.2351 7.86015 22.2915 7.85898C22.4618 7.8559 22.6321 7.85402 22.8024 7.85215C22.8603 7.85092 22.9183 7.84969 22.978 7.84843C23.7109 7.84242 24.3306 8.01727 24.8776 8.52048C25.3851 9.0531 25.5249 9.64656 25.5135 10.359C25.4888 10.9915 25.1669 11.4973 24.7216 11.9305C24.6115 12.0196 24.5023 12.0686 24.3742 12.1285C24.2218 12.2193 24.1474 12.2719 24.0751 12.4354C24.0386 12.603 24.0165 12.7677 23.9982 12.9383C23.9896 13.0032 23.9807 13.0681 23.9716 13.1329C23.9524 13.2723 23.9343 13.4117 23.917 13.5513C23.8893 13.7702 23.8566 13.9881 23.8225 14.2061C23.8167 14.243 23.811 14.28 23.805 14.318C23.7932 14.3939 23.7813 14.4698 23.7694 14.5456C23.7385 14.7441 23.7087 14.9427 23.6788 15.1414C23.6663 15.2241 23.6539 15.3068 23.6414 15.3895C23.632 15.452 23.632 15.452 23.6224 15.5157C23.5894 15.7344 23.5562 15.9531 23.5231 16.1718C23.4109 16.9119 23.2989 17.6521 23.1873 18.3923C23.1252 18.804 23.0629 19.2157 23.0004 19.6274C22.9611 19.886 22.9221 20.1447 22.8832 20.4033C22.859 20.5642 22.8346 20.725 22.8101 20.8858C22.7989 20.9597 22.7877 21.0336 22.7767 21.1076C22.6057 22.2542 22.6057 22.2542 22.3385 22.763C22.3129 22.8128 22.3129 22.8128 22.2867 22.8637C22.1473 23.1276 21.9899 23.3622 21.7892 23.584C21.7614 23.6162 21.7337 23.6484 21.7051 23.6816C21.1185 24.3193 20.2687 24.7063 19.4087 24.765C19.2682 24.7686 19.1279 24.7693 18.9873 24.7689C18.9073 24.7692 18.9073 24.7692 18.8258 24.7696C18.6485 24.7702 18.4713 24.7701 18.294 24.77C18.1664 24.7703 18.0387 24.7706 17.9111 24.771C17.6011 24.7718 17.2911 24.7721 16.9812 24.7722C16.7289 24.7722 16.4767 24.7724 16.2244 24.7727C15.5077 24.7736 14.7909 24.774 14.0741 24.7739C14.0356 24.7739 13.997 24.7739 13.9573 24.7739C13.8993 24.7739 13.8993 24.7739 13.8402 24.7739C13.215 24.7739 12.5898 24.7748 11.9646 24.7762C11.3211 24.7776 10.6775 24.7783 10.034 24.7782C9.6733 24.7782 9.31264 24.7784 8.95197 24.7795C8.6125 24.7805 8.27305 24.7804 7.93359 24.7797C7.80953 24.7796 7.68547 24.7798 7.56141 24.7804C6.37811 24.7857 5.36939 24.6528 4.45521 23.8281C4.40422 23.7839 4.40422 23.7839 4.35221 23.7388C3.79714 23.2268 3.47374 22.5172 3.3444 21.7839C3.33625 21.7383 3.3281 21.6927 3.3197 21.6457C3.18299 20.8644 3.0687 20.0791 2.95009 19.2949C2.91394 19.0561 2.8776 18.8174 2.84127 18.5787C2.76497 18.0771 2.68886 17.5754 2.6128 17.0738C2.49785 16.3158 2.38275 15.5578 2.26748 14.7998C2.22436 14.5162 2.18134 14.2327 2.1384 13.9491C2.11178 13.7734 2.08508 13.5977 2.05837 13.422C2.046 13.3405 2.03365 13.259 2.02135 13.1775C2.00457 13.0665 1.98767 12.9554 1.97075 12.8443C1.96133 12.7822 1.95191 12.72 1.9422 12.656C1.915 12.4029 1.915 12.4029 1.75879 12.2246C1.71303 12.1986 1.66727 12.1727 1.62012 12.146C1.09229 11.8239 0.684394 11.359 0.523208 10.75C0.413565 10.0169 0.471063 9.35773 0.908874 8.74326C1.30283 8.24444 1.7782 7.9678 2.40443 7.8613C2.50844 7.85743 2.61257 7.85604 2.71666 7.85654C2.8047 7.85677 2.8047 7.85677 2.89452 7.85701C2.95535 7.85742 3.01619 7.85783 3.07886 7.85825C3.14064 7.85847 3.20242 7.85869 3.26607 7.85892C3.41831 7.8595 3.57055 7.8603 3.72279 7.8613C3.7363 7.82599 3.74981 7.79067 3.76373 7.75428C3.81798 7.62313 3.87892 7.50117 3.94652 7.37646C3.97156 7.33018 3.9966 7.28391 4.02239 7.23623C4.04941 7.18671 4.07642 7.13718 4.10426 7.08616C4.14671 7.00805 4.14671 7.00805 4.19003 6.92836C4.4034 6.53712 4.62151 6.14872 4.84172 5.76129C5.05555 5.38459 5.26561 5.00589 5.47449 4.62644C5.50766 4.5662 5.54083 4.50597 5.574 4.44573C5.59044 4.41588 5.60688 4.38602 5.62381 4.35526C5.64025 4.32541 5.65669 4.29556 5.67362 4.26481C5.69829 4.22001 5.69829 4.22001 5.72345 4.17431C5.95576 3.75253 6.18959 3.3316 6.42397 2.91097C6.54658 2.69091 6.66826 2.47037 6.78942 2.2495C6.84956 2.14053 6.90971 2.03155 6.96986 1.92258C6.99677 1.87313 7.02369 1.82367 7.05142 1.77271C7.45139 1.05085 7.92896 0.501746 8.74907 0.265704C9.24746 0.158825 9.81426 0.207209 10.2658 0.439428ZM8.16614 1.80662C8.05497 1.97995 7.96096 2.16057 7.86707 2.34372C7.81154 2.44919 7.7559 2.5546 7.70018 2.65996C7.67215 2.71323 7.64411 2.76649 7.61523 2.82137C7.48707 3.06151 7.35221 3.29766 7.21705 3.53391C6.99043 3.93167 6.77073 4.33264 6.55482 4.7363C6.31423 5.1861 6.06743 5.6317 5.81499 6.07494C5.48063 6.66344 5.14858 7.25581 4.84583 7.8613C5.86097 7.8613 6.87611 7.8613 7.922 7.8613C8.20608 7.34996 8.48935 6.83933 8.76429 6.32322C8.81149 6.23483 8.85872 6.14646 8.90595 6.05809C8.93793 5.99827 8.9699 5.93844 9.00186 5.8786C9.1631 5.57683 9.32528 5.27556 9.48756 4.97434C9.51512 4.92305 9.54269 4.87177 9.5711 4.81893C9.70304 4.57362 9.83543 4.32859 9.96928 4.08432C10.0171 3.99695 10.0648 3.90951 10.1125 3.82204C10.1724 3.7122 10.2326 3.6025 10.293 3.49297C10.5203 3.07531 10.702 2.68995 10.5705 2.20811C10.404 1.71955 10.1814 1.50834 9.72864 1.26951C9.1058 1.06189 8.56437 1.32726 8.16614 1.80662ZM15.6674 1.62046C15.4075 1.96302 15.3221 2.30626 15.3227 2.73168C15.3777 3.11935 15.5778 3.44172 15.7711 3.775C15.8285 3.87524 15.8859 3.9755 15.9432 4.07579C15.973 4.12798 16.0029 4.18016 16.0337 4.23393C16.1863 4.50196 16.3357 4.77171 16.4852 5.04148C16.5156 5.09619 16.546 5.1509 16.5773 5.20726C16.7189 5.46251 16.8604 5.71786 17.0015 5.97337C17.0496 6.0603 17.0977 6.1472 17.1458 6.2341C17.2052 6.34152 17.2646 6.449 17.3239 6.55653C17.3805 6.65884 17.4389 6.76019 17.4989 6.86058C17.5709 6.99552 17.6181 7.11 17.6654 7.25328C17.7583 7.50103 17.8534 7.70991 18.0783 7.8613C18.5459 7.99264 19.0574 7.94322 19.5378 7.9183C19.72 7.90975 19.9024 7.90601 20.0848 7.90184C20.4416 7.89298 20.7979 7.87885 21.1544 7.8613C21.1087 7.76899 21.0628 7.67673 21.0169 7.58448C20.9786 7.5074 20.9786 7.5074 20.9395 7.42876C20.8233 7.20036 20.6963 6.97865 20.5685 6.75657C20.3346 6.34668 20.1074 5.93377 19.8849 5.51755C19.6441 5.06727 19.3971 4.62115 19.1442 4.17752C18.9519 3.83935 18.766 3.49812 18.5818 3.15549C18.4794 2.96612 18.3765 2.77694 18.2736 2.58787C18.2398 2.52562 18.2398 2.52562 18.2054 2.46212C17.7918 1.69085 17.7918 1.69085 17.067 1.24051C16.5298 1.14519 16.0543 1.21328 15.6674 1.62046ZM1.72083 9.27732C1.47977 9.64394 1.37657 9.95947 1.42786 10.4004C1.52839 10.6961 1.67712 10.9296 1.91614 11.1328C1.95542 11.168 1.9947 11.2033 2.03516 11.2396C2.28295 11.4149 2.51843 11.438 2.81661 11.4385C2.87019 11.4387 2.87019 11.4387 2.92486 11.439C3.04462 11.4395 3.16438 11.4393 3.28415 11.4391C3.37086 11.4394 3.45757 11.4396 3.54428 11.4399C3.78262 11.4406 4.02096 11.4407 4.2593 11.4407C4.51633 11.4408 4.77336 11.4414 5.03039 11.442C5.59241 11.4431 6.15443 11.4435 6.71646 11.4437C7.06737 11.4439 7.41828 11.4442 7.76919 11.4445C8.74071 11.4455 9.71224 11.4463 10.6838 11.4464C10.7459 11.4464 10.8081 11.4464 10.8722 11.4465C10.9982 11.4465 11.1243 11.4465 11.2503 11.4465C11.3441 11.4465 11.3441 11.4465 11.4399 11.4465C11.5025 11.4465 11.5652 11.4466 11.6297 11.4466C12.645 11.4467 13.6602 11.4481 14.6755 11.4499C15.7178 11.4517 16.7601 11.4527 17.8024 11.4527C18.3876 11.4527 18.9728 11.4531 19.5581 11.4546C20.0564 11.4558 20.5546 11.4561 21.0529 11.4554C21.3071 11.455 21.5613 11.4551 21.8156 11.4562C22.0484 11.4572 22.2812 11.4571 22.514 11.456C22.5981 11.4559 22.6823 11.4561 22.7664 11.4568C23.269 11.4607 23.7024 11.4457 24.0902 11.0852C24.3615 10.8008 24.4814 10.5323 24.4961 10.1379C24.4853 9.71206 24.3459 9.37911 24.0353 9.08201C23.6736 8.86177 23.3737 8.78308 22.951 8.78249C22.9159 8.78237 22.8808 8.78226 22.8447 8.78214C22.7268 8.78181 22.609 8.78183 22.4911 8.78185C22.4059 8.78169 22.3207 8.78151 22.2355 8.78131C22.001 8.78082 21.7666 8.78064 21.5321 8.78051C21.2793 8.78032 21.0266 8.77985 20.7738 8.77942C20.1632 8.77846 19.5527 8.77797 18.9422 8.77753C18.6547 8.77732 18.3672 8.77706 18.0797 8.7768C17.124 8.77597 16.1683 8.77526 15.2126 8.77491C14.9646 8.77482 14.7166 8.77472 14.4686 8.77463C14.407 8.7746 14.3453 8.77458 14.2818 8.77456C13.2832 8.77415 12.2845 8.77291 11.2859 8.77133C10.2607 8.76971 9.23541 8.76883 8.21017 8.76868C7.63451 8.76857 7.05886 8.76814 6.4832 8.7669C5.99299 8.76584 5.50279 8.76544 5.01258 8.76592C4.76251 8.76614 4.51246 8.76605 4.26239 8.7651C4.03329 8.76424 3.80421 8.76429 3.57511 8.76505C3.49241 8.76516 3.4097 8.76495 3.32699 8.76437C2.73484 8.76048 2.13079 8.79049 1.72083 9.27732ZM2.94154 12.4023C3.22987 14.4641 3.22987 14.4641 3.52518 16.5249C3.53557 16.5964 3.54595 16.668 3.55633 16.7395C3.59943 17.0365 3.64257 17.3335 3.6858 17.6305C3.74644 18.047 3.80686 18.4636 3.86701 18.8802C3.91022 19.1794 3.95367 19.4785 3.99729 19.7777C4.023 19.9541 4.04863 20.1305 4.074 20.307C4.10202 20.5018 4.13051 20.6966 4.15904 20.8913C4.16711 20.9479 4.17518 21.0046 4.18349 21.0629C4.3132 21.9396 4.54149 22.6763 5.26583 23.2441C5.84638 23.6372 6.44124 23.7379 7.12615 23.7373C7.17823 23.7375 7.23032 23.7376 7.28398 23.7377C7.45823 23.7382 7.63248 23.7382 7.80673 23.7383C7.93179 23.7385 8.05684 23.7388 8.1819 23.7391C8.52149 23.7397 8.86108 23.74 9.20067 23.7402C9.41295 23.7404 9.62523 23.7406 9.83751 23.7408C10.4259 23.7414 11.0144 23.7419 11.6028 23.742C11.6404 23.7421 11.6781 23.7421 11.7168 23.7421C11.7545 23.7421 11.7922 23.7421 11.8311 23.7421C11.9075 23.7421 11.9839 23.7422 12.0603 23.7422C12.0982 23.7422 12.1361 23.7422 12.1752 23.7422C12.7888 23.7424 13.4025 23.7433 14.0162 23.7444C14.6471 23.7456 15.2781 23.7462 15.9091 23.7462C16.263 23.7463 16.6168 23.7465 16.9707 23.7474C17.3038 23.7483 17.6368 23.7483 17.9699 23.7479C18.0918 23.7479 18.2137 23.7481 18.3357 23.7486C19.3549 23.7524 20.2239 23.705 20.999 22.9597C21.0518 22.9062 21.0518 22.9062 21.1056 22.8515C21.1342 22.8234 21.1629 22.7953 21.1924 22.7663C21.7784 22.1445 21.8065 21.1626 21.9224 20.3563C21.9349 20.2702 21.9474 20.1842 21.9599 20.0981C21.9936 19.8669 22.027 19.6356 22.0604 19.4043C22.0955 19.1615 22.1307 18.9189 22.166 18.6762C22.225 18.2695 22.2839 17.8628 22.3426 17.4561C22.4181 16.9336 22.4939 16.4112 22.5697 15.8888C22.635 15.4392 22.7001 14.9896 22.7652 14.54C22.7862 14.3955 22.8071 14.2511 22.8281 14.1066C22.8609 13.8803 22.8936 13.6539 22.9263 13.4276C22.9383 13.3444 22.9504 13.2612 22.9625 13.178C22.9789 13.0649 22.9952 12.9518 23.0115 12.8386C23.0207 12.7752 23.0299 12.7118 23.0393 12.6464C23.0609 12.5085 23.0609 12.5085 23.0587 12.4023C16.42 12.4023 9.78138 12.4023 2.94154 12.4023Z" fill="#C8C8C8"/>
<path d="M7.7634 14.4134C7.89385 14.5185 7.91971 14.5882 7.97092 14.7461C7.98334 14.8645 7.98334 14.8645 7.98365 14.9904C7.98399 15.0383 7.98434 15.0863 7.98469 15.1358C7.98457 15.1878 7.98445 15.2399 7.98433 15.2936C7.9847 15.3765 7.9847 15.3765 7.98508 15.4611C7.98576 15.6438 7.98572 15.8266 7.9856 16.0093C7.98579 16.1364 7.986 16.2634 7.98624 16.3904C7.9866 16.6567 7.98659 16.923 7.98633 17.1892C7.98604 17.4966 7.98664 17.804 7.98768 18.1114C7.98864 18.4076 7.98879 18.7038 7.98862 19C7.98864 19.1258 7.9889 19.2516 7.98939 19.3775C7.98999 19.5534 7.98966 19.7293 7.9891 19.9052C7.98966 19.9831 7.98966 19.9831 7.99023 20.0627C7.98834 20.3275 7.97987 20.5263 7.82443 20.7519C7.64528 20.8714 7.49552 20.8906 7.28732 20.8496C7.15592 20.7434 7.06978 20.6586 6.99435 20.5078C6.98953 20.431 6.98776 20.354 6.9875 20.2771C6.98722 20.2284 6.98694 20.1798 6.98665 20.1296C6.9866 20.076 6.98654 20.0224 6.98649 19.9672C6.98624 19.9109 6.986 19.8546 6.98575 19.7966C6.98504 19.6097 6.98471 19.4227 6.98444 19.2358C6.98423 19.139 6.98402 19.0421 6.9838 18.9453C6.98323 18.6754 6.98286 18.4056 6.98269 18.1357C6.98247 17.7867 6.98161 17.4377 6.9802 17.0887C6.97914 16.819 6.97865 16.5492 6.97859 16.2795C6.97853 16.1184 6.97818 15.9573 6.97737 15.7962C6.97654 15.6164 6.97663 15.4366 6.97695 15.2568C6.9765 15.2035 6.97605 15.1502 6.97559 15.0953C6.97809 14.644 6.97809 14.644 7.14084 14.4531C7.33783 14.3105 7.54546 14.3193 7.7634 14.4134Z" fill="#C8C8C8"/>
<path d="M10.5189 14.383C10.6562 14.4919 10.7068 14.6308 10.7538 14.795C10.7746 14.978 10.7739 15.1597 10.7728 15.3438C10.7731 15.3981 10.7733 15.4523 10.7736 15.5083C10.7742 15.6871 10.7738 15.8659 10.7733 16.0447C10.7734 16.1693 10.7735 16.2938 10.7737 16.4184C10.7739 16.6793 10.7736 16.9402 10.7729 17.2011C10.7721 17.502 10.7724 17.803 10.7732 18.104C10.774 18.3943 10.7739 18.6847 10.7734 18.975C10.7734 19.0982 10.7735 19.2214 10.7738 19.3446C10.7742 19.5169 10.7736 19.6891 10.7728 19.8614C10.7732 19.9375 10.7732 19.9375 10.7737 20.0151C10.7712 20.2977 10.7483 20.5044 10.6074 20.752C10.4272 20.8721 10.2794 20.8835 10.0703 20.8497C9.90213 20.7459 9.83997 20.6959 9.77728 20.5079C9.77251 20.4292 9.77049 20.3504 9.7701 20.2716C9.76975 20.223 9.7694 20.1743 9.76904 20.1241C9.76891 20.0708 9.76878 20.0175 9.76864 19.9625C9.76832 19.9063 9.768 19.85 9.76767 19.7921C9.76671 19.6057 9.76614 19.4192 9.76565 19.2328C9.76545 19.1692 9.76525 19.1056 9.76505 19.0401C9.76412 18.7382 9.76342 18.4364 9.76301 18.1345C9.76254 17.7863 9.76125 17.4382 9.75928 17.09C9.75781 16.8207 9.75708 16.5514 9.75692 16.2821C9.75681 16.1214 9.75627 15.9607 9.75514 15.7999C9.75396 15.6205 9.754 15.4411 9.75434 15.2616C9.75371 15.2086 9.75309 15.1555 9.75244 15.1009C9.75447 14.8068 9.76939 14.6247 9.9726 14.4043C10.1629 14.3409 10.3237 14.3328 10.5189 14.383Z" fill="#C8C8C8"/>
<path d="M18.6001 14.3554C18.6365 14.3605 18.673 14.3655 18.7105 14.3707C18.8286 14.4103 18.88 14.4538 18.9571 14.5507C19.0047 14.6934 19.0123 14.7852 19.0128 14.9338C19.0132 15.0069 19.0132 15.0069 19.0137 15.0815C19.0137 15.1349 19.0138 15.1883 19.0138 15.2434C19.0141 15.2997 19.0143 15.356 19.0146 15.414C19.0153 15.6007 19.0156 15.7873 19.0159 15.974C19.0161 16.0708 19.0163 16.1675 19.0165 16.2643C19.0171 16.5339 19.0175 16.8036 19.0176 17.0732C19.0178 17.4218 19.0187 17.7703 19.0201 18.1189C19.0212 18.3884 19.0217 18.658 19.0217 18.9275C19.0218 19.0885 19.0221 19.2494 19.0229 19.4103C19.0238 19.5899 19.0237 19.7694 19.0234 19.949C19.0238 20.0022 19.0243 20.0554 19.0247 20.1103C19.0222 20.5653 19.0222 20.5653 18.8595 20.7519C18.7048 20.855 18.6089 20.8658 18.4265 20.8768C18.2614 20.8336 18.1638 20.749 18.0782 20.6054C18.0409 20.4141 18.0444 20.2247 18.0459 20.0303C18.0454 19.972 18.0448 19.9138 18.0443 19.8538C18.0432 19.6945 18.0432 19.5353 18.0438 19.376C18.0442 19.2428 18.0438 19.1097 18.0433 18.9766C18.0424 18.6625 18.0426 18.3485 18.0437 18.0344C18.0448 17.7107 18.0439 17.3869 18.0421 17.0631C18.0406 16.7849 18.0402 16.5066 18.0407 16.2284C18.041 16.0623 18.041 15.8963 18.0398 15.7302C18.0388 15.545 18.0397 15.3599 18.0411 15.1747C18.0401 15.0924 18.0401 15.0924 18.0391 15.0084C18.0445 14.6469 18.0445 14.6469 18.1417 14.5106C18.2898 14.3814 18.4054 14.3228 18.6001 14.3554Z" fill="#C8C8C8"/>
<path d="M15.8015 14.3616C15.8391 14.3638 15.8768 14.3659 15.9156 14.3681C16.0873 14.4238 16.1299 14.4924 16.2227 14.6485C16.2521 14.8371 16.2493 15.0242 16.2479 15.2147C16.2483 15.272 16.2486 15.3292 16.249 15.3882C16.2498 15.5776 16.2493 15.7668 16.2486 15.9562C16.2486 16.0877 16.2489 16.2192 16.2492 16.3508C16.2495 16.6264 16.249 16.9021 16.2481 17.1778C16.2471 17.4962 16.2474 17.8146 16.2485 18.1331C16.2494 18.4068 16.2495 18.6805 16.249 18.9542C16.2487 19.1175 16.2487 19.2808 16.2493 19.4442C16.2498 19.6263 16.249 19.8084 16.2479 19.9905C16.2483 20.0445 16.2487 20.0985 16.2491 20.1541C16.2451 20.5195 16.2451 20.5195 16.1295 20.7111C15.9498 20.8689 15.8246 20.8619 15.5879 20.8497C15.4228 20.7917 15.3959 20.757 15.2949 20.6055C15.2824 20.4951 15.2824 20.4951 15.2819 20.3634C15.2814 20.3134 15.281 20.2635 15.2806 20.212C15.2806 20.1572 15.2807 20.1024 15.2807 20.0459C15.2804 19.9882 15.2801 19.9305 15.2797 19.871C15.279 19.7126 15.2786 19.5542 15.2786 19.3958C15.2785 19.2968 15.2783 19.1979 15.278 19.0989C15.2771 18.7535 15.2767 18.4081 15.2768 18.0628C15.2769 17.7409 15.2758 17.4191 15.2743 17.0973C15.273 16.8209 15.2725 16.5445 15.2726 16.2681C15.2726 16.1031 15.2723 15.9381 15.2713 15.773C15.2703 15.5889 15.2706 15.4048 15.2712 15.2207C15.2706 15.1661 15.2701 15.1115 15.2695 15.0553C15.2725 14.6857 15.2725 14.6857 15.388 14.4937C15.5358 14.3646 15.6095 14.347 15.8015 14.3616Z" fill="#C8C8C8"/>
<path d="M13.1464 14.3555C13.2809 14.4432 13.3674 14.5045 13.4394 14.6485C13.4443 14.7265 13.4462 14.8047 13.4466 14.8829C13.4469 14.9323 13.4473 14.9818 13.4476 15.0328C13.4478 15.1146 13.4478 15.1146 13.448 15.198C13.4484 15.2553 13.4487 15.3125 13.449 15.3715C13.45 15.5616 13.4505 15.7517 13.451 15.9418C13.4512 16.0073 13.4514 16.0727 13.4516 16.1382C13.4526 16.4456 13.4533 16.7531 13.4537 17.0605C13.4541 17.4154 13.4554 17.7703 13.4574 18.1252C13.4589 18.3995 13.4596 18.6738 13.4598 18.9482C13.4599 19.112 13.4603 19.2758 13.4615 19.4397C13.4627 19.6225 13.4627 19.8053 13.4623 19.9881C13.463 20.0423 13.4636 20.0966 13.4642 20.1524C13.4617 20.5195 13.4617 20.5195 13.3464 20.7112C13.2125 20.8284 13.165 20.8479 12.9847 20.8649C12.7765 20.8472 12.706 20.7998 12.5605 20.6543C12.5006 20.5346 12.5051 20.4562 12.5045 20.3223C12.5041 20.2728 12.5038 20.2233 12.5034 20.1723C12.5033 20.1178 12.5032 20.0633 12.503 20.0071C12.5027 19.9498 12.5024 19.8926 12.502 19.8336C12.5011 19.6435 12.5005 19.4534 12.5 19.2633C12.4998 19.1978 12.4996 19.1324 12.4994 19.067C12.4985 18.7595 12.4978 18.452 12.4974 18.1446C12.4969 17.7897 12.4956 17.4348 12.4937 17.0799C12.4922 16.8056 12.4915 16.5313 12.4913 16.257C12.4912 16.0931 12.4907 15.9293 12.4895 15.7655C12.4883 15.5826 12.4884 15.3998 12.4887 15.217C12.4881 15.1628 12.4875 15.1085 12.4868 15.0527C12.4893 14.6856 12.4893 14.6856 12.6046 14.4939C12.784 14.3369 12.9097 14.3354 13.1464 14.3555Z" fill="#C8C8C8"/>
</g>
<defs>
<clipPath id="clip0_147_2384">
<rect width="25" height="25" fill="white" transform="translate(0.5)"/>
</clipPath>
</defs>
</svg>
