<svg width="26" height="25" viewBox="0 0 26 25" fill="none" xmlns="http://www.w3.org/2000/svg">
<g clip-path="url(#clip0_147_7378)">
<mask id="path-1-inside-1_147_7378" fill="white">
<path d="M3.21113 0.0182259C3.24646 0.0181111 3.2818 0.0179962 3.3182 0.0178779C3.43723 0.0175515 3.55625 0.0175736 3.67528 0.0175936C3.76124 0.0174325 3.84719 0.0172506 3.93314 0.0170496C4.16984 0.0165601 4.40655 0.0163788 4.64325 0.0162493C4.89835 0.0160588 5.15345 0.0155911 5.40855 0.0151647C6.02491 0.0141994 6.64126 0.0137081 7.25761 0.0132737C7.54783 0.0130597 7.83805 0.0127977 8.12828 0.0125418C9.09301 0.0117111 10.0578 0.0110034 11.0225 0.0106498C11.2729 0.0105566 11.5233 0.0104628 11.7737 0.0103673C11.8359 0.0103437 11.8981 0.0103201 11.9623 0.0102957C12.9704 0.00989047 13.9784 0.00865338 14.9865 0.00706747C16.0214 0.00545265 17.0563 0.00457322 18.0912 0.00441719C18.6723 0.00431147 19.2534 0.0038843 19.8345 0.00263686C20.3294 0.00157689 20.8243 0.00118389 21.3192 0.00165868C21.5717 0.00188057 21.8241 0.00178808 22.0765 0.000840247C22.3079 -2.07998e-05 22.5392 2.81506e-05 22.7705 0.000786403C22.854 0.000902403 22.9375 0.000691416 23.0209 0.000111177C23.8347 -0.0051936 24.488 0.178422 25.0944 0.748046C25.4945 1.17265 25.8169 1.77891 25.8181 2.37174C25.8183 2.42195 25.8186 2.47215 25.8188 2.52387C25.8188 2.60649 25.8188 2.60649 25.8188 2.69078C25.8189 2.74935 25.8191 2.80792 25.8193 2.86827C25.8197 3.03093 25.82 3.19359 25.8201 3.35625C25.8203 3.53167 25.8208 3.70709 25.8212 3.8825C25.8221 4.30622 25.8226 4.72994 25.8231 5.15366C25.8233 5.35331 25.8236 5.55296 25.8238 5.75261C25.8246 6.41652 25.8253 7.08042 25.8257 7.74433C25.8258 7.91659 25.8259 8.08885 25.826 8.26112C25.826 8.30393 25.826 8.34674 25.8261 8.39085C25.8265 9.08399 25.8277 9.77712 25.8293 10.4703C25.8309 11.1823 25.8318 11.8943 25.8319 12.6063C25.832 13.0059 25.8325 13.4055 25.8337 13.8051C25.8348 14.1455 25.8352 14.4859 25.8347 14.8263C25.8345 14.9999 25.8346 15.1734 25.8355 15.3469C25.8365 15.5355 25.836 15.7241 25.8354 15.9127C25.8362 15.994 25.8362 15.994 25.837 16.077C25.8311 16.7998 25.5306 17.415 25.0429 17.9397C23.821 19.0771 21.9195 18.6283 20.4405 18.6283C20.4405 20.7391 20.4405 22.85 20.4405 25.0248C20.2174 24.9355 20.0808 24.8409 19.9064 24.686C19.6832 24.4923 19.4567 24.3053 19.2228 24.1245C18.9583 23.9193 18.7035 23.7052 18.4507 23.4858C18.2557 23.3173 18.0563 23.1562 17.8526 22.9984C17.589 22.7943 17.3352 22.5812 17.0835 22.3627C16.8885 22.1942 16.6891 22.0331 16.4854 21.8754C16.2173 21.6677 15.9587 21.451 15.7023 21.2291C15.5082 21.0614 15.3107 20.8994 15.1094 20.7403C14.9246 20.5926 14.7422 20.4421 14.5597 20.2915C14.5056 20.2468 14.5056 20.2468 14.4504 20.2013C14.3797 20.143 14.309 20.0846 14.2383 20.0263C14.0688 19.8866 13.8988 19.7476 13.7287 19.6087C13.6423 19.5381 13.556 19.4674 13.4697 19.3966C13.4246 19.3596 13.3794 19.3226 13.3329 19.2844C13.2936 19.2521 13.2543 19.2198 13.2137 19.1866C13.1654 19.1474 13.1172 19.1081 13.0674 19.0677C13.0382 19.0363 13.009 19.0048 12.9789 18.9723C12.647 18.6481 12.3577 18.6276 11.917 18.627C11.8293 18.6282 11.7415 18.6294 11.6537 18.6306C11.5602 18.6305 11.4667 18.6302 11.3733 18.6297C11.1727 18.6291 10.9721 18.6297 10.7716 18.6313C10.4541 18.6337 10.1366 18.6335 9.81909 18.6329C9.31668 18.6323 8.8143 18.6335 8.3119 18.6355C7.41269 18.6391 6.51347 18.6397 5.61424 18.6393C5.29898 18.6393 4.98374 18.6401 4.66848 18.6417C4.47197 18.6425 4.27546 18.6428 4.07895 18.6429C3.98823 18.6431 3.89751 18.6436 3.8068 18.6443C2.95212 18.6509 2.19102 18.5215 1.54533 17.905C1.11946 17.4455 0.806306 16.8642 0.805018 16.2273C0.8048 16.1771 0.804583 16.127 0.804358 16.0753C0.804367 16.0206 0.804376 15.9659 0.804386 15.9095C0.804206 15.851 0.804027 15.7926 0.803842 15.7324C0.803397 15.5704 0.803171 15.4084 0.803041 15.2465C0.80285 15.0717 0.802383 14.8969 0.801957 14.7221C0.800993 14.3001 0.8005 13.878 0.800066 13.456C0.799852 13.2571 0.79959 13.0582 0.799334 12.8593C0.798503 12.1979 0.797796 11.5364 0.797442 10.875C0.797349 10.7034 0.797255 10.5319 0.797159 10.3603C0.797136 10.3177 0.797112 10.275 0.797088 10.2311C0.796683 9.54065 0.795446 8.8502 0.793859 8.15976C0.792243 7.4504 0.791365 6.74104 0.791209 6.03168C0.791104 5.6336 0.790678 5.23553 0.789429 4.83745C0.788367 4.49837 0.787977 4.1593 0.788451 3.82022C0.788672 3.64737 0.788584 3.47455 0.787632 3.30171C0.786607 3.11387 0.787114 2.92604 0.787756 2.7382C0.78722 2.68421 0.786685 2.63023 0.786133 2.57461C0.792066 1.85208 1.08209 1.24689 1.5707 0.725921C2.03102 0.283186 2.57099 0.019112 3.21113 0.0182259ZM5.65166 8.04785C5.35048 8.46339 5.21219 8.93809 5.25493 9.44861C5.35784 10.046 5.64132 10.51 6.13384 10.8646C6.6418 11.1645 7.1867 11.2631 7.76481 11.1151C8.33075 10.8929 8.76244 10.5284 9.01775 9.96988C9.2188 9.41601 9.18326 8.90357 8.9384 8.36828C8.6649 7.85769 8.28159 7.55602 7.7423 7.36159C6.96983 7.13466 6.15775 7.44097 5.65166 8.04785ZM11.7914 8.00455C11.6041 8.25652 11.4808 8.50885 11.4073 8.81384C11.398 8.85224 11.3886 8.89063 11.379 8.93019C11.303 9.40165 11.416 9.86932 11.6514 10.2787C11.8784 10.5882 12.1337 10.844 12.4815 11.0111C12.5283 11.0343 12.5283 11.0343 12.5761 11.058C13.0029 11.2343 13.5575 11.2231 13.9921 11.0813C14.509 10.8597 14.9051 10.4608 15.1365 9.94909C15.3119 9.45853 15.3062 8.95719 15.1182 8.47204C14.9789 8.2089 14.8048 7.98552 14.5811 7.78845C14.5548 7.76441 14.5285 7.74036 14.5014 7.71559C14.1436 7.41467 13.6619 7.25758 13.1939 7.28186C12.6366 7.36256 12.1668 7.57762 11.7914 8.00455ZM18.1456 7.78845C18.1155 7.8135 18.0855 7.83855 18.0546 7.86436C17.6827 8.19726 17.5262 8.6494 17.4667 9.13637C17.4501 9.7152 17.6536 10.2048 18.0456 10.6251C18.4997 11.047 19.0072 11.1829 19.6207 11.1727C20.1693 11.128 20.5794 10.8519 20.944 10.4526C21.249 10.0734 21.3977 9.61887 21.3833 9.1318C21.3124 8.5552 21.0669 8.06914 20.6205 7.6969C19.8635 7.14819 18.849 7.14556 18.1456 7.78845Z"/>
</mask>
<path d="M3.21113 0.0182259C3.24646 0.0181111 3.2818 0.0179962 3.3182 0.0178779C3.43723 0.0175515 3.55625 0.0175736 3.67528 0.0175936C3.76124 0.0174325 3.84719 0.0172506 3.93314 0.0170496C4.16984 0.0165601 4.40655 0.0163788 4.64325 0.0162493C4.89835 0.0160588 5.15345 0.0155911 5.40855 0.0151647C6.02491 0.0141994 6.64126 0.0137081 7.25761 0.0132737C7.54783 0.0130597 7.83805 0.0127977 8.12828 0.0125418C9.09301 0.0117111 10.0578 0.0110034 11.0225 0.0106498C11.2729 0.0105566 11.5233 0.0104628 11.7737 0.0103673C11.8359 0.0103437 11.8981 0.0103201 11.9623 0.0102957C12.9704 0.00989047 13.9784 0.00865338 14.9865 0.00706747C16.0214 0.00545265 17.0563 0.00457322 18.0912 0.00441719C18.6723 0.00431147 19.2534 0.0038843 19.8345 0.00263686C20.3294 0.00157689 20.8243 0.00118389 21.3192 0.00165868C21.5717 0.00188057 21.8241 0.00178808 22.0765 0.000840247C22.3079 -2.07998e-05 22.5392 2.81506e-05 22.7705 0.000786403C22.854 0.000902403 22.9375 0.000691416 23.0209 0.000111177C23.8347 -0.0051936 24.488 0.178422 25.0944 0.748046C25.4945 1.17265 25.8169 1.77891 25.8181 2.37174C25.8183 2.42195 25.8186 2.47215 25.8188 2.52387C25.8188 2.60649 25.8188 2.60649 25.8188 2.69078C25.8189 2.74935 25.8191 2.80792 25.8193 2.86827C25.8197 3.03093 25.82 3.19359 25.8201 3.35625C25.8203 3.53167 25.8208 3.70709 25.8212 3.8825C25.8221 4.30622 25.8226 4.72994 25.8231 5.15366C25.8233 5.35331 25.8236 5.55296 25.8238 5.75261C25.8246 6.41652 25.8253 7.08042 25.8257 7.74433C25.8258 7.91659 25.8259 8.08885 25.826 8.26112C25.826 8.30393 25.826 8.34674 25.8261 8.39085C25.8265 9.08399 25.8277 9.77712 25.8293 10.4703C25.8309 11.1823 25.8318 11.8943 25.8319 12.6063C25.832 13.0059 25.8325 13.4055 25.8337 13.8051C25.8348 14.1455 25.8352 14.4859 25.8347 14.8263C25.8345 14.9999 25.8346 15.1734 25.8355 15.3469C25.8365 15.5355 25.836 15.7241 25.8354 15.9127C25.8362 15.994 25.8362 15.994 25.837 16.077C25.8311 16.7998 25.5306 17.415 25.0429 17.9397C23.821 19.0771 21.9195 18.6283 20.4405 18.6283C20.4405 20.7391 20.4405 22.85 20.4405 25.0248C20.2174 24.9355 20.0808 24.8409 19.9064 24.686C19.6832 24.4923 19.4567 24.3053 19.2228 24.1245C18.9583 23.9193 18.7035 23.7052 18.4507 23.4858C18.2557 23.3173 18.0563 23.1562 17.8526 22.9984C17.589 22.7943 17.3352 22.5812 17.0835 22.3627C16.8885 22.1942 16.6891 22.0331 16.4854 21.8754C16.2173 21.6677 15.9587 21.451 15.7023 21.2291C15.5082 21.0614 15.3107 20.8994 15.1094 20.7403C14.9246 20.5926 14.7422 20.4421 14.5597 20.2915C14.5056 20.2468 14.5056 20.2468 14.4504 20.2013C14.3797 20.143 14.309 20.0846 14.2383 20.0263C14.0688 19.8866 13.8988 19.7476 13.7287 19.6087C13.6423 19.5381 13.556 19.4674 13.4697 19.3966C13.4246 19.3596 13.3794 19.3226 13.3329 19.2844C13.2936 19.2521 13.2543 19.2198 13.2137 19.1866C13.1654 19.1474 13.1172 19.1081 13.0674 19.0677C13.0382 19.0363 13.009 19.0048 12.9789 18.9723C12.647 18.6481 12.3577 18.6276 11.917 18.627C11.8293 18.6282 11.7415 18.6294 11.6537 18.6306C11.5602 18.6305 11.4667 18.6302 11.3733 18.6297C11.1727 18.6291 10.9721 18.6297 10.7716 18.6313C10.4541 18.6337 10.1366 18.6335 9.81909 18.6329C9.31668 18.6323 8.8143 18.6335 8.3119 18.6355C7.41269 18.6391 6.51347 18.6397 5.61424 18.6393C5.29898 18.6393 4.98374 18.6401 4.66848 18.6417C4.47197 18.6425 4.27546 18.6428 4.07895 18.6429C3.98823 18.6431 3.89751 18.6436 3.8068 18.6443C2.95212 18.6509 2.19102 18.5215 1.54533 17.905C1.11946 17.4455 0.806306 16.8642 0.805018 16.2273C0.8048 16.1771 0.804583 16.127 0.804358 16.0753C0.804367 16.0206 0.804376 15.9659 0.804386 15.9095C0.804206 15.851 0.804027 15.7926 0.803842 15.7324C0.803397 15.5704 0.803171 15.4084 0.803041 15.2465C0.80285 15.0717 0.802383 14.8969 0.801957 14.7221C0.800993 14.3001 0.8005 13.878 0.800066 13.456C0.799852 13.2571 0.79959 13.0582 0.799334 12.8593C0.798503 12.1979 0.797796 11.5364 0.797442 10.875C0.797349 10.7034 0.797255 10.5319 0.797159 10.3603C0.797136 10.3177 0.797112 10.275 0.797088 10.2311C0.796683 9.54065 0.795446 8.8502 0.793859 8.15976C0.792243 7.4504 0.791365 6.74104 0.791209 6.03168C0.791104 5.6336 0.790678 5.23553 0.789429 4.83745C0.788367 4.49837 0.787977 4.1593 0.788451 3.82022C0.788672 3.64737 0.788584 3.47455 0.787632 3.30171C0.786607 3.11387 0.787114 2.92604 0.787756 2.7382C0.78722 2.68421 0.786685 2.63023 0.786133 2.57461C0.792066 1.85208 1.08209 1.24689 1.5707 0.725921C2.03102 0.283186 2.57099 0.019112 3.21113 0.0182259ZM5.65166 8.04785C5.35048 8.46339 5.21219 8.93809 5.25493 9.44861C5.35784 10.046 5.64132 10.51 6.13384 10.8646C6.6418 11.1645 7.1867 11.2631 7.76481 11.1151C8.33075 10.8929 8.76244 10.5284 9.01775 9.96988C9.2188 9.41601 9.18326 8.90357 8.9384 8.36828C8.6649 7.85769 8.28159 7.55602 7.7423 7.36159C6.96983 7.13466 6.15775 7.44097 5.65166 8.04785ZM11.7914 8.00455C11.6041 8.25652 11.4808 8.50885 11.4073 8.81384C11.398 8.85224 11.3886 8.89063 11.379 8.93019C11.303 9.40165 11.416 9.86932 11.6514 10.2787C11.8784 10.5882 12.1337 10.844 12.4815 11.0111C12.5283 11.0343 12.5283 11.0343 12.5761 11.058C13.0029 11.2343 13.5575 11.2231 13.9921 11.0813C14.509 10.8597 14.9051 10.4608 15.1365 9.94909C15.3119 9.45853 15.3062 8.95719 15.1182 8.47204C14.9789 8.2089 14.8048 7.98552 14.5811 7.78845C14.5548 7.76441 14.5285 7.74036 14.5014 7.71559C14.1436 7.41467 13.6619 7.25758 13.1939 7.28186C12.6366 7.36256 12.1668 7.57762 11.7914 8.00455ZM18.1456 7.78845C18.1155 7.8135 18.0855 7.83855 18.0546 7.86436C17.6827 8.19726 17.5262 8.6494 17.4667 9.13637C17.4501 9.7152 17.6536 10.2048 18.0456 10.6251C18.4997 11.047 19.0072 11.1829 19.6207 11.1727C20.1693 11.128 20.5794 10.8519 20.944 10.4526C21.249 10.0734 21.3977 9.61887 21.3833 9.1318C21.3124 8.5552 21.0669 8.06914 20.6205 7.6969C19.8635 7.14819 18.849 7.14556 18.1456 7.78845Z" stroke="#C8C8C8" stroke-width="2.4" mask="url(#path-1-inside-1_147_7378)"/>
</g>
<defs>
<clipPath id="clip0_147_7378">
<rect width="25" height="25" fill="white" transform="translate(0.5)"/>
</clipPath>
</defs>
</svg>
