<svg width="89" height="89" viewBox="0 0 89 89" fill="none" xmlns="http://www.w3.org/2000/svg">
<path d="M31.8914 39.3035C31.797 39.3033 31.7028 39.3133 31.6105 39.3333L23.8426 41.0572C23.6054 41.1098 23.3874 41.2273 23.213 41.3965C19.3768 45.1223 16.3687 48.5992 14.4863 52.2638C12.6442 55.8498 12.017 59.6612 12.7332 63.7703C12.6776 64.0213 12.2928 65.5338 12.9656 67.5477C13.6239 69.5183 15.5866 71.6078 19.0676 72.8555C19.0899 73.1267 19.0998 73.4019 19.1353 73.6691C19.1658 73.8961 19.2551 74.1112 19.3944 74.293C19.5337 74.4749 19.7183 74.617 19.9296 74.7054C19.9296 74.7054 20.6686 74.947 21.0919 75.1027L19.6002 83.6358C19.567 83.8241 19.5754 84.0174 19.6248 84.2022C19.6741 84.387 19.7633 84.5587 19.886 84.7054C20.0087 84.8521 20.162 84.9703 20.3352 85.0515C20.5084 85.1328 20.6972 85.1752 20.8884 85.1758H68.1254C68.3176 85.1754 68.5074 85.1327 68.6814 85.0509C68.8554 84.9691 69.0092 84.8502 69.1321 84.7024C69.255 84.5546 69.3439 84.3814 69.3926 84.1954C69.4412 84.0094 69.4484 83.8151 69.4136 83.6261L67.9026 75.1027C68.3223 74.948 69.0552 74.7054 69.0552 74.7054C69.2665 74.617 69.451 74.4749 69.5904 74.293C69.7297 74.1112 69.819 73.8961 69.8494 73.6691C69.8881 73.377 69.8941 73.0951 69.9172 72.8071C73.3938 71.5833 75.3607 69.5023 76.0192 67.5381C76.6857 65.5499 76.3224 64.0889 76.2613 63.8091C76.9898 59.6837 76.3469 55.8621 74.4985 52.2638C72.6161 48.5992 69.608 45.1223 65.7718 41.3965C65.5974 41.2273 65.3794 41.1098 65.1422 41.0572L57.3743 39.3333C57.282 39.3133 57.1878 39.3033 57.0934 39.3035H31.8914Z" fill="#D0E2EE"/>
<path d="M63.1469 41.3962C66.9831 45.122 69.993 48.5973 71.8754 52.2618C73.7237 55.8601 74.3669 59.6813 73.6385 63.8067C73.6995 64.0864 74.0615 65.5497 73.395 67.5379C72.7366 69.5022 70.7699 71.583 67.2933 72.8068C67.27 73.0949 67.2656 73.3758 67.2267 73.6679C67.1645 74.1296 66.8621 74.5236 66.4323 74.7032C66.4323 74.7032 65.6987 74.9457 65.2791 75.1004L66.7885 83.6238C66.937 84.4287 66.3205 85.1716 65.502 85.1741H68.1262C68.9447 85.1716 69.5612 84.4287 69.4126 83.6238L67.9032 75.1004C68.3229 74.9457 69.0564 74.7032 69.0564 74.7032C69.4862 74.5237 69.7886 74.1296 69.8509 73.6679C69.8895 73.3758 69.8945 73.0948 69.9175 72.8068C73.394 71.583 75.3607 69.5022 76.0192 67.5379C76.6857 65.5497 76.3237 64.0865 76.2627 63.8067C76.9911 59.6813 76.348 55.8601 74.4996 52.2618C72.6172 48.5973 69.6073 45.122 65.7711 41.3962C65.5974 41.2266 65.38 41.1086 65.1433 41.0555L62.1973 40.4036L63.1469 41.3962Z" fill="#A8C2E1"/>
<path d="M51.7559 49.7336H37.2282C37.1437 49.7357 32.1054 50.728 32.0362 50.7536L27.5336 52.4578L27.2901 75.3551L26.4624 85.1753H62.5472L61.7323 75.3141L61.453 52.4578L56.9479 50.7536L51.7559 49.7336Z" fill="#3A4D5C"/>
<path d="M27.4691 64.3638L27.2898 75.3551L27.1514 76.9927C28.907 77.0771 31.8739 77.1615 35.1828 77.0081C39.6754 76.7998 44.7992 76.1541 49.0621 74.0636C52.3304 75.7162 56.1876 76.8464 61.3911 76.9209C61.5471 76.9228 61.7068 76.923 61.8652 76.9235L61.7319 75.3142L61.5321 64.8328L27.4691 64.3638Z" fill="#0D202B"/>
<path d="M38.8943 31.6615C38.2919 31.6583 37.7647 32.0657 37.6158 32.6495L36.0371 39.698C35.8898 40.2973 36.1801 40.9183 36.7344 41.1896L43.9212 44.6668C44.2821 44.8413 44.7031 44.8413 45.0641 44.6668L52.2508 41.1896C52.8051 40.9184 53.0954 40.2973 52.9482 39.698L51.3694 32.6495C51.2206 32.0657 50.6934 31.6583 50.0909 31.6615H38.8943Z" fill="#FFA185"/>
<path d="M58.7207 19.9807C57.2154 19.5859 55.6137 20.0426 54.1588 20.9783C54.0022 21.0781 53.8685 21.21 53.7667 21.3653C53.6648 21.5205 53.5971 21.6957 53.5679 21.8791L52.6672 27.5645C52.6126 27.9074 52.6962 28.2578 52.8995 28.5392C53.1028 28.8205 53.4093 29.01 53.752 29.0658C56.542 29.5101 58.5925 28.9919 59.8636 27.8164C61.1347 26.6408 61.463 25.0389 61.4327 23.7678C61.4327 23.7645 61.4327 23.7612 61.4327 23.7579C61.3748 21.8937 60.2261 20.3757 58.7207 19.9807Z" fill="#FFA185"/>
<path d="M30.2641 19.9806C28.7588 20.3759 27.6101 21.8938 27.5522 23.758C27.5522 23.7613 27.5522 23.7646 27.5522 23.7679C27.5219 25.039 27.8502 26.6409 29.1212 27.8165C30.3923 28.9921 32.4429 29.5102 35.2329 29.0659C35.5755 29.0101 35.882 28.8208 36.0854 28.5394C36.2887 28.258 36.3722 27.9075 36.3177 27.5646L35.4169 21.8792C35.3878 21.6958 35.32 21.5206 35.2182 21.3654C35.1163 21.2101 34.9827 21.0782 34.8261 20.9784C33.3711 20.0426 31.7695 19.5857 30.2641 19.9806Z" fill="#FFA185"/>
<path d="M54.9819 12.174L33.8478 13.4332C33.515 13.454 33.2026 13.6009 32.9741 13.8437C32.7457 14.0866 32.6182 14.4073 32.6177 14.7407V20.5521C32.6175 20.6071 32.6208 20.6621 32.6276 20.7168L33.4315 27.148C33.4457 27.2341 33.4684 27.3185 33.4993 27.4C35.7313 33.9646 41.3834 35.9234 41.3834 35.9234C41.5177 35.9684 41.6583 35.9913 41.7999 35.9913H47.1851C47.3267 35.9913 47.4673 35.9684 47.6016 35.9234C47.6016 35.9234 53.2536 33.9646 55.4857 27.4C55.5166 27.3185 55.5393 27.2341 55.5535 27.148L56.3574 20.7168C56.3641 20.6621 56.3675 20.6071 56.3673 20.5521V13.4816C56.367 13.3033 56.3303 13.127 56.2596 12.9634C56.1888 12.7998 56.0855 12.6523 55.9559 12.53C55.8263 12.4076 55.6731 12.313 55.5057 12.2518C55.3383 12.1906 55.1598 12.1641 54.9819 12.174Z" fill="#FFCCBC"/>
<path d="M53.7339 20.7168L52.9292 27.1491C52.9153 27.2349 52.893 27.3187 52.8626 27.4C50.6306 33.9646 44.9773 35.9234 44.9773 35.9234C44.8425 35.9681 44.7015 35.9904 44.5596 35.9899H47.1837C47.3257 35.9905 47.4667 35.97 47.6014 35.9234C47.6014 35.9234 53.2547 33.9646 55.4867 27.4C55.517 27.3187 55.5395 27.2349 55.5534 27.1491L56.3581 20.7168H53.7339Z" fill="#FFA185"/>
<path d="M12.4648 61.3271C12.5013 62.1297 12.5899 62.9433 12.7339 63.7694C12.7142 63.8582 12.6542 64.1133 12.6135 64.4843L15.8142 66.4243C16.111 66.605 16.4674 66.6607 16.8051 66.579C17.1428 66.4973 17.4344 66.285 17.6158 65.9886C17.7064 65.8407 17.7669 65.6762 17.7935 65.5047C17.8201 65.3332 17.8125 65.1582 17.771 64.9897C17.7296 64.8211 17.6551 64.6625 17.5519 64.523C17.4487 64.3835 17.3189 64.2658 17.1699 64.1768L12.4648 61.3271Z" fill="#A8C2E1"/>
<path d="M31.8926 39.3036C31.7978 39.3036 31.7033 39.3139 31.6107 39.3343L30.3345 39.6162C30.9596 41.5119 32.4988 46.2593 33.1893 49.134C33.2707 49.4714 33.4826 49.7628 33.7785 49.9444C34.0744 50.1259 34.4301 50.1829 34.7679 50.1027C35.1053 50.0212 35.3967 49.8093 35.5783 49.5135C35.7599 49.2176 35.8168 48.8618 35.7366 48.5241C35.0596 45.7055 33.7033 41.4686 32.992 39.3036L31.8926 39.3036Z" fill="#A06861" fill-opacity="0.913725"/>
<path d="M34.9519 47.4589C32.9856 47.4589 31.3682 49.086 31.3682 51.0522C31.3682 53.0185 32.9856 54.6359 34.9519 54.6359C36.9181 54.6359 38.5452 53.0185 38.5452 51.0522C38.5452 49.086 36.9181 47.4589 34.9519 47.4589Z" fill="#9A605A"/>
<path d="M28.1622 61.1441L25.7795 57.2408C25.6017 56.9423 25.3126 56.726 24.9756 56.6403C24.6358 56.557 24.2766 56.6109 23.978 56.7954C23.3609 57.1728 23.1659 57.979 23.5422 58.597L25.9248 62.5101L28.1622 61.1441Z" fill="#A8C2E1"/>
<path d="M63.0597 62.5104L65.4423 58.5974C65.8186 57.9795 65.6236 57.1735 65.0065 56.7959C64.7079 56.6134 64.3487 56.5579 64.0088 56.6412C63.6719 56.727 63.3827 56.9427 63.2049 57.2413L60.8223 61.1446L63.0597 62.5104Z" fill="#A8C2E1"/>
<path d="M76.5343 61.3145L71.8164 64.1769C71.6674 64.2659 71.5376 64.3836 71.4344 64.5231C71.3312 64.6627 71.2567 64.8213 71.2153 64.9898C71.1738 65.1583 71.1662 65.3333 71.1928 65.5048C71.2195 65.6763 71.2799 65.8408 71.3705 65.9887C71.5519 66.2851 71.8435 66.4974 72.1812 66.5791C72.519 66.6608 72.8753 66.6051 73.1721 66.4244L76.3754 64.4819C76.3371 64.1424 76.2833 63.9025 76.2627 63.8079C76.4117 62.9638 76.4986 62.1339 76.5343 61.3145Z" fill="#A8C2E1"/>
<path d="M56.1509 39.3036C55.3049 41.7004 53.8933 45.8352 53.2474 48.5241C53.1672 48.8618 53.2241 49.2176 53.4057 49.5134C53.5872 49.8093 53.8787 50.0212 54.2161 50.1027C54.5539 50.1829 54.9096 50.126 55.2055 49.9444C55.5014 49.7628 55.7132 49.4714 55.7947 49.134C56.4268 46.5022 58.0152 41.9185 58.8186 39.6547L57.3733 39.3343C57.2816 39.3141 57.1879 39.3038 57.094 39.3036L56.1509 39.3036Z" fill="#A06861" fill-opacity="0.913725"/>
<path d="M54.0328 47.4589C55.9991 47.4589 57.6165 49.086 57.6165 51.0522C57.6165 53.0185 55.9991 54.6359 54.0328 54.6359C52.0666 54.6359 50.4395 53.0185 50.4395 51.0522C50.4395 49.086 52.0666 47.4589 54.0328 47.4589Z" fill="#9A605A"/>
<path d="M61.8105 49.241C61.6484 49.1815 61.4761 49.1545 61.3035 49.1618C61.131 49.1691 60.9616 49.2104 60.805 49.2833C60.6484 49.3562 60.5078 49.4592 60.3911 49.5866C60.2745 49.714 60.1841 49.8631 60.1252 50.0255C59.8468 50.7932 59.8028 51.579 59.7475 52.3113C59.6945 53.0122 59.6809 53.5497 59.6797 53.5995C59.6797 53.5995 59.6798 53.6491 59.6797 53.6491C59.6797 53.6492 59.6797 53.659 59.6797 53.659C59.6765 53.7091 59.5755 55.2293 59.7184 57.2136C59.8637 59.2303 60.2194 61.6994 61.365 63.6836C61.5399 63.9839 61.8268 64.2026 62.1628 64.2916C62.4987 64.3805 62.8562 64.3325 63.1568 64.1582C63.4571 63.9833 63.6757 63.6963 63.7647 63.3604C63.8536 63.0244 63.8057 62.667 63.6314 62.3664C62.8721 61.0513 62.4749 58.8484 62.3432 57.0199C62.2115 55.1914 62.3045 53.7752 62.3045 53.7752C62.3049 53.7559 62.3049 53.7366 62.3045 53.7172C62.3045 53.7172 62.3134 53.1606 62.3626 52.5065C62.4122 51.8524 62.5572 51.0323 62.5951 50.9278C62.6545 50.7656 62.6814 50.5932 62.6742 50.4206C62.6669 50.2481 62.6256 50.0787 62.5527 49.9221C62.4799 49.7655 62.3768 49.6249 62.2494 49.5082C62.122 49.3916 61.9729 49.2998 61.8105 49.241Z" fill="#A8C2E1"/>
<path d="M44.4923 3.82498C42.2508 3.82498 40.284 3.91524 38.5549 4.20287C35.81 4.6596 33.5729 5.66153 32.114 7.58316C30.6551 9.50484 30.0703 12.137 30.0703 15.6319C30.0703 17.2857 30.6626 18.7522 31.3101 19.9421C31.4163 20.1356 31.5696 20.2992 31.7559 20.4177C31.9421 20.5362 32.1552 20.6058 32.3755 20.6201C32.3755 20.6201 40.6125 21.0098 47.3108 17.695C48.1116 18.6088 51.1439 21.87 55.8826 21.8598C56.1005 21.8585 56.3147 21.8029 56.5058 21.698C56.6969 21.5932 56.8588 21.4424 56.9771 21.2593C57.7992 19.9918 58.9336 17.965 58.9336 15.6319C58.9336 12.9482 58.5958 10.7945 57.7713 9.04569C56.9468 7.29683 55.5923 6.00318 53.8873 5.21018C53.2824 4.929 52.9159 5.08672 52.6573 5.17052C52.3986 5.25532 52.1973 5.36591 51.9986 5.48047C51.7958 5.597 51.6036 5.74036 51.4078 5.87773C51.3785 5.75326 51.382 5.63712 51.34 5.50967C51.2656 5.28453 51.1796 5.05691 50.9816 4.79294C50.7837 4.52862 50.3993 4.19723 49.8775 4.12463C48.2826 3.90196 46.5003 3.82498 44.4923 3.82498Z" fill="#143441"/>
<path d="M54.9625 85.1754L53.655 78.1817C53.5098 77.5941 52.9817 77.182 52.3764 77.1841H36.6373C36.032 77.182 35.5039 77.5942 35.3588 78.1817L34.0415 85.1754H54.9625Z" fill="#D0E2EE"/>
<path d="M27.1746 49.241C27.0122 49.2999 26.8631 49.3903 26.7357 49.5069C26.6084 49.6236 26.5053 49.7642 26.4324 49.9208C26.3595 50.0774 26.3182 50.2468 26.311 50.4193C26.3037 50.5919 26.3306 50.7642 26.3901 50.9263C26.4278 51.031 26.5731 51.851 26.6225 52.5051C26.6721 53.1591 26.6806 53.7158 26.6806 53.7158C26.6802 53.7351 26.6802 53.7544 26.6806 53.7737C26.6806 53.7737 26.7736 55.19 26.6419 57.0184C26.5102 58.8469 26.113 61.0498 25.3538 62.3649C25.1794 62.6656 25.1315 63.0231 25.2205 63.3591C25.3095 63.695 25.5281 63.9818 25.8283 64.1568C26.129 64.3311 26.4865 64.3791 26.8224 64.2901C27.1583 64.2011 27.4453 63.9826 27.6202 63.6823C28.7658 61.6981 29.1215 59.229 29.2668 57.2123C29.4097 55.228 29.3089 53.7079 29.3054 53.6577V53.6477C29.3052 53.6378 29.2925 53.0382 29.2376 52.3111C29.1823 51.5787 29.1383 50.793 28.8599 50.0252C28.801 49.8629 28.7107 49.7137 28.594 49.5864C28.4774 49.459 28.3367 49.356 28.1802 49.2831C28.0236 49.2102 27.8542 49.1688 27.6816 49.1616C27.509 49.1543 27.3368 49.1815 27.1746 49.241Z" fill="#A8C2E1"/>
<path d="M64.5805 61.5127C63.2913 61.5147 62.2269 61.7453 62.2269 61.7453C61.9406 61.8067 61.6831 61.9621 61.4953 62.1868C61.3075 62.4114 61.2002 62.6924 61.1905 62.9851C61.1905 62.9851 61.1191 65.3282 61.2487 67.9925C61.3134 69.3247 61.4222 70.7391 61.6264 72.0218C61.8306 73.3045 62.0723 74.4322 62.6628 75.373C62.7807 75.5593 62.9437 75.7128 63.1367 75.8195C63.3297 75.9261 63.5464 75.9825 63.7669 75.9832C66.2595 75.9981 69.0553 74.7047 69.0553 74.7047C69.2666 74.6163 69.4511 74.4741 69.5904 74.2923C69.7298 74.1105 69.8191 73.8954 69.8495 73.6683C70.4767 68.9505 69.0553 63.4984 69.0553 63.4984C69.0031 63.2815 68.8964 63.0815 68.7453 62.9173C67.5503 61.6283 65.8697 61.5107 64.5805 61.5127Z" fill="#A8C2E1"/>
<path d="M24.4044 61.5127C23.1152 61.5107 21.4346 61.6282 20.2395 62.9171C20.0885 63.0813 19.9818 63.2814 19.9296 63.4983C19.9296 63.4983 18.5082 68.9504 19.1354 73.6682C19.1658 73.8953 19.2551 74.1104 19.3944 74.2922C19.5338 74.474 19.7183 74.6162 19.9296 74.7046C19.9296 74.7046 22.7253 75.9993 25.218 75.9831C25.4385 75.9823 25.6552 75.926 25.8482 75.8193C26.0412 75.7127 26.2042 75.5592 26.3221 75.3729C26.9126 74.4321 27.1543 73.3044 27.3585 72.0217C27.5627 70.7389 27.6715 69.3246 27.7362 67.9924C27.8657 65.3281 27.7943 62.9849 27.7943 62.9849C27.7847 62.6923 27.6774 62.4113 27.4896 62.1866C27.3018 61.962 27.0443 61.8066 26.758 61.7452C26.758 61.7452 25.6936 61.5147 24.4044 61.5127Z" fill="#A8C2E1"/>
<path d="M34.6518 36.5914C34.3811 36.4607 34.0737 36.4268 33.781 36.4956C33.4883 36.5644 33.2282 36.7317 33.044 36.9693L30.8551 39.8169C30.644 40.09 30.549 40.4352 30.5907 40.7779C30.6324 41.1205 30.8074 41.433 31.0778 41.6475L38.9716 47.8657C39.211 48.053 39.5079 48.1515 39.8117 48.1443C40.1155 48.137 40.4074 48.0245 40.6376 47.826L45.3448 43.7968C45.5107 43.6551 45.6386 43.4744 45.7171 43.2709C45.7956 43.0673 45.822 42.8474 45.7942 42.631C45.7663 42.4147 45.6849 42.2087 45.5574 42.0317C45.4299 41.8547 45.2603 41.7125 45.0639 41.6175L34.6518 36.5914Z" fill="#A8C2E1"/>
<path d="M54.3333 36.5915L43.9212 41.6184C43.7248 41.7133 43.5552 41.8558 43.4277 42.0327C43.3002 42.2097 43.2188 42.4157 43.1909 42.632C43.1631 42.8484 43.1895 43.0682 43.268 43.2717C43.3465 43.4753 43.4744 43.656 43.6403 43.7976L48.3475 47.8269C48.5777 48.0254 48.8696 48.1379 49.1734 48.1451C49.4772 48.1524 49.7741 48.0539 50.0135 47.8665L57.9073 41.6483C58.1777 41.4338 58.3527 41.1214 58.3944 40.7787C58.4361 40.4361 58.3411 40.0908 58.13 39.8177L55.9411 36.9702C55.7569 36.7325 55.4967 36.5654 55.2041 36.4966C54.9114 36.4278 54.604 36.4608 54.3333 36.5915Z" fill="#A8C2E1"/>
<path d="M45.8002 49.7338V42.8C45.8031 42.0751 45.2175 41.4853 44.4926 41.4828C43.7677 41.4853 43.1822 42.0751 43.1851 42.8V49.7338H45.8002Z" fill="#91A9D9"/>
<path d="M51.9019 5.54062C53.307 6.34324 54.4275 7.52191 55.1462 9.04637C55.9706 10.7952 56.3096 12.9487 56.3096 15.6325C56.3096 17.9656 55.1764 19.9924 54.3543 21.26C54.2419 21.4286 54.0919 21.5689 53.9161 21.6701C54.5345 21.7911 55.1887 21.8611 55.8817 21.8596C56.3251 21.8578 56.7377 21.6324 56.9785 21.2598C57.8006 19.9923 58.9338 17.9654 58.9338 15.6323C58.9338 12.9486 58.5948 10.795 57.7704 9.04622C56.9459 7.29736 55.5929 6.00295 53.8879 5.20995C53.6233 5.08696 53.4034 5.04936 53.2191 5.05134C52.9821 5.05397 52.8033 5.1247 52.6578 5.17181L51.9019 5.54062Z" fill="#0D202B"/>
<path d="M64.5795 61.5116C63.2903 61.5136 62.227 61.7446 62.227 61.7446C61.9408 61.8063 61.6834 61.9619 61.4958 62.1867C61.3082 62.4114 61.2012 62.6924 61.1917 62.985C61.1917 62.985 61.1783 63.4442 61.1738 64.1638C61.4197 64.1489 61.6811 64.1341 61.9555 64.1341C63.2446 64.1321 64.9273 64.2496 66.1223 65.5384C66.2735 65.7027 66.3803 65.903 66.4324 66.1201C66.4324 66.1201 67.6709 70.8822 67.3217 75.356C68.3456 75.0322 69.0566 74.7025 69.0566 74.7025C69.2678 74.6142 69.4523 74.4722 69.5916 74.2906C69.731 74.109 69.8204 73.8941 69.851 73.6672C70.4782 68.9494 69.0566 63.4959 69.0566 63.4959C69.0044 63.2788 68.8977 63.0785 68.7465 62.9142C67.5515 61.6252 65.8687 61.5096 64.5795 61.5116Z" fill="#91A9D9"/>
<path d="M24.4047 61.5116C23.1155 61.5097 21.4354 61.6272 20.2404 62.916C20.0892 63.0804 19.9825 63.2807 19.9303 63.4978C19.9303 63.4978 18.5087 68.9511 19.1358 73.6689C19.1664 73.8958 19.2559 74.1108 19.3952 74.2924C19.5346 74.4741 19.719 74.616 19.9303 74.7042C19.9303 74.7042 20.6398 75.0335 21.6626 75.3577C21.3135 70.8839 22.5544 66.1218 22.5544 66.1218C22.6066 65.9047 22.7133 65.7046 22.8645 65.5402C24.0595 64.2513 25.7397 64.1338 27.0289 64.1358C27.3022 64.1362 27.5653 64.1458 27.8105 64.1656C27.805 63.4463 27.7951 62.9867 27.7951 62.9867C27.7855 62.6938 27.6781 62.4126 27.4899 62.1878C27.3018 61.963 27.0439 61.8076 26.7572 61.7465C26.7572 61.7465 25.6939 61.5136 24.4047 61.5116Z" fill="#91A9D9"/>
<path d="M54.0342 47.458C52.3643 47.458 50.9381 48.6316 50.5464 50.1898C50.8229 50.1204 51.1137 50.0822 51.41 50.0822C53.3762 50.0822 54.9926 51.7113 54.9926 53.6776C54.9926 53.9716 54.9559 54.2565 54.8875 54.531C56.4465 54.1437 57.6167 52.7254 57.6167 51.0535C57.6167 49.0873 56.0004 47.458 54.0342 47.458Z" fill="#66342D"/>
<path d="M34.9526 47.458C33.2836 47.458 31.8655 48.6302 31.4751 50.1872C31.7489 50.1188 32.0349 50.0821 32.3285 50.0821C34.2947 50.0821 35.9213 51.7113 35.9213 53.6776C35.9213 53.9716 35.8846 54.2567 35.8162 54.531C37.3733 54.1407 38.5455 52.7224 38.5455 51.0534C38.5455 49.0871 36.9189 47.458 34.9526 47.458Z" fill="#66342D"/>
<path d="M54.982 36.4643C54.7585 36.4509 54.5353 36.4949 54.3336 36.5921L43.9215 41.6176C43.7248 41.7124 43.5548 41.8546 43.427 42.0317C43.2991 42.2088 43.2175 42.415 43.1895 42.6316C43.1615 42.8482 43.1881 43.0683 43.2666 43.2721C43.3452 43.4758 43.4734 43.6567 43.6396 43.7984L44.0727 44.1698L54.3336 39.2162C54.6041 39.0856 54.9112 39.0518 55.2037 39.1204C55.4961 39.189 55.7561 39.3558 55.9404 39.593L57.6651 41.838L57.9059 41.6485C58.1761 41.434 58.3511 41.1218 58.3928 40.7794C58.4345 40.4369 58.3397 40.0919 58.1289 39.8188L55.9404 36.9691C55.8258 36.8216 55.681 36.7002 55.5157 36.6132C55.3504 36.5261 55.1685 36.4753 54.982 36.4643Z" fill="#91A9D9"/>
<path d="M34.0018 36.4643C33.8153 36.4753 33.6333 36.5261 33.468 36.6132C33.3027 36.7002 33.158 36.8216 33.0433 36.9691L30.8548 39.8163C30.6432 40.0895 30.5479 40.4351 30.5897 40.7782C30.6314 41.1212 30.8068 41.434 31.0778 41.6485L31.3187 41.838L33.0434 39.593C33.2277 39.3552 33.4882 39.188 33.7812 39.1194C34.0742 39.0507 34.3819 39.085 34.6527 39.2162L44.911 44.1672L45.3441 43.7959C45.5098 43.6543 45.6377 43.4737 45.7161 43.2704C45.7945 43.0671 45.8211 42.8473 45.7934 42.6312C45.7656 42.415 45.6845 42.2091 45.5573 42.0322C45.4301 41.8552 45.2608 41.7128 45.0648 41.6176L34.6527 36.5922C34.4502 36.4945 34.2261 36.4505 34.0018 36.4643Z" fill="#91A9D9"/>
<path d="M31.0219 59.7211C27.7426 60.3072 25.6347 62.0267 25.6347 62.0267C25.334 62.2851 25.1663 62.6657 25.1785 63.062C25.1785 63.062 25.2949 69.8378 24.502 72.8923C24.2969 73.6839 24.8578 74.4682 25.6731 74.53C25.6731 74.53 29.961 74.8746 35.0781 74.6376C39.8493 74.4164 45.3383 73.8032 49.083 71.6135C43.903 67.3506 38.325 63.2292 31.0219 59.7211Z" fill="#FFCCBC"/>
<path d="M31.0213 59.7203C30.2015 59.8671 29.4557 60.0843 28.7969 60.3277C28.8755 60.6208 29.0113 60.8955 29.1965 61.1361C29.3816 61.3767 29.6125 61.5783 29.8758 61.7294L35.2522 64.7713C35.3302 64.8144 35.4107 64.8531 35.4931 64.8869C37.011 65.5258 40.2575 67.7197 42.8736 69.6816C44.5287 70.9228 45.9143 72.0242 46.7611 72.7056C47.5875 72.3937 48.3668 72.0326 49.0829 71.6139C43.9029 67.3509 38.3244 63.2284 31.0213 59.7203Z" fill="#FFA185"/>
<path d="M36.3851 62.7701C40.4572 64.4841 49.0831 71.6139 49.0831 71.6139C50.603 72.6749 56.1356 74.0663 56.1356 74.0663L61.4223 74.5507C61.8136 74.5557 62.2149 74.5557 62.6242 74.5507L64.4847 72.8927C63.898 70.6408 63.786 66.307 63.7954 64.2538C63.798 63.8923 63.6518 63.5454 63.3905 63.2954C58.1696 58.9793 50.8654 56.3897 44.3189 56.1149C43.4203 56.0851 42.4716 56.0509 41.4923 56.0608C40.513 56.0707 39.5028 56.1262 38.4788 56.271C36.0592 56.6241 32.8268 57.6719 31.0215 59.7203L36.3851 62.7701Z" fill="#FFCCBC"/>
</svg>
