<svg width="20" height="26" viewBox="0 0 20 26" fill="none" xmlns="http://www.w3.org/2000/svg">
<path d="M6.5 14.0625V25.25H4.5V14.0625V13.8719L4.31618 13.8214C3.30497 13.5438 2.45823 12.9901 1.77131 12.1538C1.09049 11.325 0.75 10.3607 0.75 9.25V0.75H2.75V9.25V9.5H3H4.25H4.5V9.25V0.75H6.5V9.25V9.5H6.75H8H8.25V9.25V0.75H10.25V9.25C10.25 10.3607 9.90951 11.325 9.22869 12.1538C8.54177 12.9901 7.69503 13.5438 6.68382 13.8214L6.5 13.8719V14.0625ZM13.25 15.25V6.75C13.25 5.0869 13.8332 3.6766 15.0049 2.5049C16.1174 1.39237 17.4451 0.810398 19 0.754462V25.25H17V15.5V15.25H16.75H13.25Z" fill="#F8C56C" stroke="#818181" stroke-width="0.5"/>
</svg>
