<svg width="65" height="65" viewBox="0 0 65 65" fill="none" xmlns="http://www.w3.org/2000/svg">
<g clip-path="url(#clip0_147_8779)">
<path d="M6.09375 -4.12464e-05C13.1346 -0.185948 20.1755 -0.371855 27.4298 -0.563396C29.6344 -0.645456 31.8389 -0.727517 34.1103 -0.812064C36.8497 -0.852775 36.8497 -0.852775 38.1414 -0.86034C39.0257 -0.868595 39.9046 -0.901043 40.7875 -0.951665C45.979 -1.2387 50.066 -0.649634 54.0922 2.88987C57.6464 6.12471 59.6306 9.52485 59.8985 14.3598C59.9908 16.5033 59.934 18.6404 59.8395 20.7827C59.7735 22.3199 59.7614 23.8565 59.7512 25.395C59.7317 28.1358 59.6723 30.8741 59.5862 33.6136C59.5029 36.2673 59.4395 38.9204 59.4014 41.5752C59.399 41.7417 59.3965 41.9082 59.3941 42.0798C59.3753 43.383 59.3577 44.6862 59.3404 45.9894C59.256 52.3285 59.0746 58.6614 58.9062 65C41.4781 65 24.05 65 6.09375 65C6.09375 43.55 6.09375 22.1 6.09375 -4.12464e-05ZM10.1562 4.06246C10.1562 22.8312 10.1562 41.6 10.1562 60.9375C24.9031 60.9375 39.65 60.9375 54.8437 60.9375C54.8437 45.7716 54.8437 30.6058 54.8437 14.9804C51.4922 14.9804 48.1406 14.9804 44.6875 14.9804C44.6875 11.3775 44.6875 7.77457 44.6875 4.06246C33.2922 4.06246 21.8969 4.06246 10.1562 4.06246ZM48.75 4.95113C48.75 6.87828 48.75 8.80543 48.75 10.791C50.6771 10.791 52.6043 10.791 54.5898 10.791C53.9557 10.0494 53.9557 10.0494 53.2892 9.34691C53.1412 9.19833 53.1412 9.19833 52.9902 9.04673C52.8342 8.89116 52.8342 8.89116 52.6751 8.73245C52.5666 8.62381 52.4581 8.51517 52.3463 8.40324C52.1184 8.1753 51.8904 7.94752 51.6623 7.71989C51.3113 7.36965 50.9611 7.01872 50.6109 6.66773C50.3892 6.44609 50.1674 6.2245 49.9456 6.00296C49.8404 5.89744 49.7351 5.79193 49.6267 5.68322C49.53 5.58696 49.4334 5.4907 49.3338 5.39153C49.2057 5.26362 49.2057 5.26362 49.0751 5.13312C48.9062 4.93682 48.9062 4.93682 48.75 4.95113Z" fill="white"/>
<path d="M17.2656 40.625C27.3203 40.625 37.375 40.625 47.7344 40.625C47.7344 41.9656 47.7344 43.3063 47.7344 44.6875C37.6797 44.6875 27.625 44.6875 17.2656 44.6875C17.2656 43.3469 17.2656 42.0063 17.2656 40.625Z" fill="white"/>
<path d="M17.2656 30.4688C27.3203 30.4688 37.375 30.4688 47.7344 30.4688C47.7344 31.8094 47.7344 33.15 47.7344 34.5312C37.6797 34.5312 27.625 34.5312 17.2656 34.5312C17.2656 33.1906 17.2656 31.85 17.2656 30.4688Z" fill="white"/>
<path d="M17.2656 20.3125C27.3203 20.3125 37.375 20.3125 47.7344 20.3125C47.7344 21.6531 47.7344 22.9938 47.7344 24.375C37.6797 24.375 27.625 24.375 17.2656 24.375C17.2656 23.0344 17.2656 21.6938 17.2656 20.3125Z" fill="white"/>
</g>
<defs>
<clipPath id="clip0_147_8779">
<rect width="65" height="65" fill="white"/>
</clipPath>
</defs>
</svg>
