<svg width="26" height="25" viewBox="0 0 26 25" fill="none" xmlns="http://www.w3.org/2000/svg">
<g clip-path="url(#clip0_147_2391)">
<path d="M3.29492 -6.4671e-06C6.00296 -0.0715092 8.711 -0.143012 11.5011 -0.216681C12.349 -0.248243 13.1969 -0.279805 14.0705 -0.312323C15.1241 -0.327981 15.1241 -0.327981 15.6209 -0.33089C15.9611 -0.334066 16.2991 -0.346546 16.6387 -0.366016C18.6354 -0.476415 20.2073 -0.24985 21.7559 1.1115C23.1229 2.35567 23.886 3.66341 23.989 5.52301C24.0245 6.34744 24.0027 7.16938 23.9664 7.99334C23.941 8.5846 23.9363 9.17558 23.9324 9.76731C23.9249 10.8215 23.9021 11.8747 23.869 12.9283C23.8369 13.949 23.8125 14.9694 23.7979 15.9905C23.7969 16.0545 23.796 16.1185 23.795 16.1845C23.7878 16.6858 23.781 17.187 23.7744 17.6882C23.742 20.1264 23.6722 22.5621 23.6074 25C16.9043 25 10.2012 25 3.29492 25C3.29492 16.75 3.29492 8.49999 3.29492 -6.4671e-06ZM4.85742 1.56249C4.85742 8.78124 4.85742 16 4.85742 23.4375C10.5293 23.4375 16.2012 23.4375 22.0449 23.4375C22.0449 17.6045 22.0449 11.7715 22.0449 5.76171C20.7559 5.76171 19.4668 5.76171 18.1387 5.76171C18.1387 4.37597 18.1387 2.99023 18.1387 1.56249C13.7559 1.56249 9.37305 1.56249 4.85742 1.56249ZM19.7012 1.90429C19.7012 2.6455 19.7012 3.38671 19.7012 4.15038C20.4424 4.15038 21.1836 4.15038 21.9473 4.15038C21.7034 3.86518 21.7034 3.86518 21.447 3.59498C21.3901 3.53783 21.3901 3.53783 21.332 3.47952C21.272 3.41969 21.272 3.41969 21.2108 3.35864C21.1691 3.31686 21.1274 3.27508 21.0844 3.23202C20.9967 3.14436 20.909 3.05675 20.8213 2.9692C20.6863 2.83449 20.5516 2.69952 20.4169 2.56452C20.3316 2.47928 20.2463 2.39405 20.161 2.30884C20.1206 2.26826 20.0801 2.22767 20.0384 2.18586C20.0012 2.14884 19.964 2.11182 19.9257 2.07367C19.8764 2.02448 19.8764 2.02448 19.8262 1.97428C19.7612 1.89878 19.7612 1.89878 19.7012 1.90429Z" fill="#C8C8C8"/>
<path d="M7.5918 15.625C11.459 15.625 15.3262 15.625 19.3105 15.625C19.3105 16.1406 19.3105 16.6562 19.3105 17.1875C15.4434 17.1875 11.5762 17.1875 7.5918 17.1875C7.5918 16.6719 7.5918 16.1562 7.5918 15.625Z" fill="#C8C8C8"/>
<path d="M7.5918 11.7188C11.459 11.7188 15.3262 11.7188 19.3105 11.7188C19.3105 12.2344 19.3105 12.75 19.3105 13.2812C15.4434 13.2812 11.5762 13.2812 7.5918 13.2812C7.5918 12.7656 7.5918 12.25 7.5918 11.7188Z" fill="#C8C8C8"/>
<path d="M7.5918 7.8125C11.459 7.8125 15.3262 7.8125 19.3105 7.8125C19.3105 8.32812 19.3105 8.84375 19.3105 9.375C15.4434 9.375 11.5762 9.375 7.5918 9.375C7.5918 8.85938 7.5918 8.34375 7.5918 7.8125Z" fill="#C8C8C8"/>
</g>
<defs>
<clipPath id="clip0_147_2391">
<rect width="25" height="25" fill="white" transform="translate(0.951172)"/>
</clipPath>
</defs>
</svg>
