<svg width="66" height="61" viewBox="0 0 66 61" fill="none" xmlns="http://www.w3.org/2000/svg">
<path d="M10.1359 0.075445C10.3369 0.0746469 10.5379 0.0738488 10.745 0.0730266C11.4189 0.0706351 12.0927 0.0697971 12.7666 0.0689696C13.2497 0.0676094 13.7328 0.0661666 14.2159 0.0646472C15.8029 0.0600829 17.39 0.0578307 18.977 0.0556677C19.5239 0.0547889 20.0708 0.0538953 20.6177 0.0529869C22.8932 0.0493254 25.1687 0.0461488 27.4443 0.0445757C28.0343 0.0441611 28.6243 0.0437443 29.2143 0.0433197C29.3609 0.0432147 29.5076 0.0431097 29.6586 0.0430015C32.0313 0.0412017 34.4039 0.0357049 36.7766 0.0286499C39.2161 0.0214555 41.6557 0.0176322 44.0952 0.0168678C45.4635 0.0163584 46.8317 0.0144238 48.1999 0.0089532C49.4883 0.0038854 50.7765 0.00298648 52.0648 0.0052112C52.5361 0.00531841 53.0074 0.00395584 53.4787 0.000966159C57.3732 -0.0223457 60.3511 0.358685 63.3396 3.06498C65.3361 5.14028 65.9835 7.77998 65.9803 10.57C65.9812 10.7521 65.9822 10.9341 65.9831 11.1217C65.9844 11.5031 65.9845 11.8845 65.9835 12.2659C65.9828 12.8476 65.988 13.4289 65.9935 14.0105C65.994 14.3832 65.9941 14.7558 65.9939 15.1285C65.9959 15.3008 65.9979 15.4732 66 15.6507C65.9891 16.9587 65.7109 17.8649 64.7864 18.8433C63.9996 19.3114 63.2791 19.3695 62.3859 19.4267C59.9066 19.6587 58.2868 20.4977 56.1866 21.8221C52.5625 23.923 47.9929 24.473 43.9167 23.4891C41.8598 22.8937 40.0387 21.8321 38.2056 20.7509C37.3477 20.2542 36.5776 19.8839 35.613 19.6437C35.613 31.5349 35.613 43.426 35.613 55.6775C38.8503 55.6775 42.0875 55.6775 45.4229 55.6775C46.7309 56.5457 46.7309 56.5457 47.1669 57.1969C47.3142 58.0077 47.343 58.8071 46.9608 59.5525C46.3884 60.2802 45.8636 60.6365 44.9869 60.8871C44.2145 60.9521 43.4444 60.9509 42.6696 60.9502C42.4362 60.9517 42.2028 60.9531 41.9624 60.9546C41.1911 60.9588 40.4198 60.9596 39.6485 60.9601C39.1117 60.9615 38.5749 60.9629 38.0381 60.9645C36.9128 60.9671 35.7874 60.9679 34.6621 60.9676C33.2216 60.9676 31.7813 60.9735 30.3409 60.981C29.232 60.9858 28.1232 60.9867 27.0144 60.9864C26.4834 60.9869 25.9525 60.9889 25.4215 60.9922C24.678 60.9965 23.9346 60.9952 23.1911 60.9926C22.9728 60.995 22.7545 60.9975 22.5296 61C21.2317 60.9884 20.0946 60.8424 19.0451 60.0189C18.7301 59.0777 18.7104 58.1806 18.8271 57.1969C19.2743 56.46 19.6348 56.1543 20.3531 55.6775C23.6623 55.6775 26.9715 55.6775 30.381 55.6775C30.381 43.7147 30.381 31.7519 30.381 19.4267C27.7305 20.74 27.7305 20.74 25.2283 22.1808C22.9647 23.4325 20.5619 23.8494 18.0096 23.8359C17.7771 23.835 17.5445 23.8341 17.3049 23.8332C14.0509 23.7866 11.5873 22.7504 8.81284 21.1497C6.91303 20.0829 5.38392 19.4511 3.18577 19.3453C1.7047 19.2584 1.7047 19.2584 1.01941 18.7212C0.0912924 17.6222 0.012043 16.6353 0.0137257 15.2353C0.0123245 14.9738 0.0123245 14.9738 0.0108949 14.707C0.00964538 14.3379 0.00953202 13.9688 0.0104791 13.5997C0.0111605 13.0452 0.00607738 12.491 0.000526581 11.9365C-0.0128899 8.64174 0.214643 5.94976 2.47727 3.36345C2.64841 3.14981 2.64841 3.14981 2.82301 2.93185C4.68951 0.804411 7.41479 0.0748641 10.1359 0.075445ZM6.42849 6.76874C6.30765 6.9039 6.18682 7.03905 6.06232 7.1783C5.17752 8.657 5.25546 10.2722 5.284 11.9377C5.28597 12.1577 5.28793 12.3776 5.28996 12.6042C5.29505 13.1419 5.3022 13.6794 5.31125 14.217C5.50936 14.2595 5.70748 14.302 5.9116 14.3459C8.10812 14.8663 9.90481 15.6958 11.8512 16.8218C13.8389 17.9705 15.389 18.6118 17.7099 18.6398C17.8692 18.6428 18.0285 18.6458 18.1927 18.649C20.5137 18.6293 22.313 17.8761 24.2226 16.6183C26.0287 15.481 27.6234 14.8103 29.727 14.434C29.8968 14.3938 30.0665 14.3535 30.2414 14.3119C34.8823 13.5463 38.9415 15.0473 42.8806 17.3569C44.58 18.3251 46.0643 18.6346 48.0116 18.6262C48.1726 18.6297 48.3337 18.6332 48.4996 18.6368C50.802 18.6388 52.5948 17.7453 54.5516 16.6183C56.5686 15.4886 58.4048 14.6656 60.6828 14.217C60.702 13.4663 60.7135 12.7157 60.7236 11.9649C60.7291 11.7553 60.7346 11.5457 60.7402 11.3298C60.7573 9.64055 60.6116 8.01234 59.5383 6.64664C58.1118 5.54902 57.1835 5.18797 55.4037 5.20829C55.206 5.20709 55.0083 5.20589 54.8046 5.20465C54.1446 5.2017 53.4847 5.20494 52.8247 5.20818C52.3505 5.20736 51.8763 5.20616 51.4021 5.20463C50.1157 5.2016 48.8294 5.20402 47.543 5.2076C46.1962 5.21061 44.8493 5.20921 43.5025 5.20844C41.2405 5.20785 38.9786 5.21078 36.7167 5.21581C34.1027 5.22158 31.4888 5.22197 28.8748 5.21942C26.3591 5.21707 23.8434 5.21842 21.3278 5.22149C20.2577 5.22274 19.1877 5.22272 18.1176 5.22169C16.857 5.22066 15.5965 5.22286 14.3359 5.22754C13.8737 5.22875 13.4114 5.22886 12.9492 5.22777C12.3174 5.22648 11.6857 5.2292 11.054 5.23293C10.7807 5.23097 10.7807 5.23097 10.5019 5.22898C8.95298 5.24556 7.47846 5.53566 6.42849 6.76874Z" fill="white"/>
</svg>
