<svg width="26" height="26" viewBox="0 0 26 26" fill="none" xmlns="http://www.w3.org/2000/svg">
<path d="M3.99293 0.0321569C4.07211 0.0318167 4.1513 0.0314766 4.23288 0.0311261C4.49835 0.0301068 4.76381 0.0297496 5.02927 0.0293969C5.21958 0.0288171 5.4099 0.0282021 5.60021 0.0275545C6.2254 0.0256091 6.85059 0.0246491 7.47579 0.0237272C7.69123 0.0233527 7.90667 0.0229718 8.12211 0.0225846C9.01853 0.0210239 9.91495 0.01967 10.8114 0.0189995C11.0438 0.0188228 11.2762 0.0186451 11.5087 0.0184641C11.5664 0.0184194 11.6242 0.0183746 11.6837 0.0183285C12.6184 0.0175614 13.5531 0.0152185 14.4877 0.0122114C15.4488 0.00914499 16.4098 0.00751535 17.3708 0.00718957C17.9099 0.00697244 18.4489 0.00614785 18.9879 0.00381612C19.4954 0.00165607 20.0029 0.00127293 20.5104 0.00222117C20.696 0.00226687 20.8817 0.00168609 21.0674 0.000411806C22.6016 -0.00952438 23.7747 0.152882 24.952 1.30638C25.7385 2.19094 25.9935 3.31606 25.9922 4.50526C25.9926 4.58285 25.993 4.66045 25.9933 4.7404C25.9938 4.90297 25.9939 5.06554 25.9935 5.22811C25.9932 5.47601 25.9953 5.7238 25.9974 5.97169C25.9976 6.13053 25.9977 6.28937 25.9976 6.44822C25.9984 6.52167 25.9992 6.59512 26 6.67079C25.9957 7.2283 25.8861 7.61455 25.5219 8.03157C25.212 8.23111 24.9281 8.25587 24.5763 8.28022C23.5996 8.37911 22.9615 8.73674 22.1341 9.30121C20.7064 10.1967 18.9063 10.4311 17.3005 10.0117C16.4902 9.75797 15.7728 9.30549 15.0507 8.84466C14.7127 8.63296 14.4094 8.47509 14.0294 8.37274C14.0294 13.4411 14.0294 18.5094 14.0294 23.7314C15.3046 23.7314 16.5799 23.7314 17.8939 23.7314C18.4091 24.1015 18.4091 24.1015 18.5809 24.379C18.6389 24.7246 18.6503 25.0653 18.4997 25.383C18.2742 25.6932 18.0675 25.8451 17.7221 25.9519C17.4178 25.9796 17.1145 25.9791 16.8092 25.9788C16.7173 25.9794 16.6253 25.98 16.5306 25.9807C16.2268 25.9824 15.923 25.9828 15.6191 25.983C15.4076 25.9836 15.1962 25.9842 14.9847 25.9848C14.5414 25.986 14.0981 25.9863 13.6548 25.9862C13.0873 25.9862 12.5199 25.9887 11.9525 25.9919C11.5157 25.9939 11.0788 25.9943 10.642 25.9942C10.4329 25.9944 10.2237 25.9953 10.0145 25.9967C9.72163 25.9985 9.4288 25.998 9.13588 25.9969C9.04989 25.9979 8.9639 25.9989 8.8753 26C8.36402 25.9951 7.91605 25.9328 7.50263 25.5818C7.37851 25.1807 7.37075 24.7983 7.41675 24.379C7.59289 24.0649 7.73491 23.9346 8.0179 23.7314C9.32152 23.7314 10.6252 23.7314 11.9683 23.7314C11.9683 18.6325 11.9683 13.5336 11.9683 8.28022C10.9242 8.84002 10.9242 8.84002 9.93841 9.45409C9.0467 9.98764 8.10014 10.1653 7.09471 10.1596C7.00309 10.1592 6.91148 10.1588 6.81709 10.1584C5.53521 10.1385 4.5647 9.69691 3.47173 9.01461C2.72332 8.55993 2.12094 8.29065 1.255 8.24553C0.67155 8.20851 0.67155 8.20851 0.401587 7.97952C0.0359637 7.51109 0.00474419 7.09045 0.00540709 6.49375C0.00485509 6.38229 0.00485509 6.38229 0.00429194 6.26857C0.0037997 6.11125 0.00375504 5.95393 0.00412814 5.79661C0.00439656 5.56026 0.00239412 5.32401 0.000207441 5.08767C-0.00507783 3.68336 0.0845563 2.53597 0.975896 1.4336C1.04331 1.34254 1.04331 1.34254 1.11209 1.24964C1.84738 0.342864 2.92098 0.0319093 3.99293 0.0321569ZM2.53244 2.88504C2.48483 2.94264 2.43723 3.00025 2.38819 3.0596C2.03963 3.68987 2.07033 4.3783 2.08158 5.08822C2.08235 5.18196 2.08313 5.2757 2.08392 5.37229C2.08593 5.60145 2.08874 5.83056 2.09231 6.0597C2.17036 6.07782 2.2484 6.09595 2.32881 6.11463C3.19411 6.33646 3.9019 6.68999 4.66865 7.16996C5.45167 7.65955 6.06233 7.93291 6.97662 7.94483C7.03939 7.94612 7.10215 7.94741 7.16681 7.94874C8.08114 7.94038 8.78999 7.61931 9.54223 7.08322C10.2537 6.59846 10.8819 6.31259 11.7106 6.15222C11.7775 6.13504 11.8444 6.11787 11.9133 6.10017C13.7415 5.77383 15.3406 6.41359 16.8924 7.39801C17.5618 7.8107 18.1465 7.94261 18.9137 7.93905C18.9771 7.94054 19.0405 7.94203 19.1059 7.94356C20.0129 7.94441 20.7192 7.56359 21.49 7.08322C22.2846 6.60168 23.008 6.25093 23.9053 6.0597C23.9129 5.73974 23.9174 5.41981 23.9214 5.09978C23.9236 5.01045 23.9258 4.92112 23.928 4.82908C23.9347 4.10909 23.8773 3.4151 23.4545 2.833C22.8925 2.36516 22.5268 2.21127 21.8257 2.21993C21.7478 2.21941 21.67 2.2189 21.5897 2.21837C21.3297 2.21712 21.0697 2.2185 20.8097 2.21988C20.6229 2.21953 20.4361 2.21902 20.2493 2.21836C19.7426 2.21707 19.2358 2.21811 18.7291 2.21963C18.1985 2.22092 17.6679 2.22032 17.1373 2.21999C16.2463 2.21974 15.3552 2.22099 14.4641 2.22313C13.4344 2.22559 12.4047 2.22576 11.3749 2.22467C10.3839 2.22367 9.39287 2.22425 8.40184 2.22555C7.98031 2.22609 7.55878 2.22608 7.13725 2.22564C6.64065 2.2252 6.14408 2.22614 5.64748 2.22813C5.46539 2.22865 5.28329 2.22869 5.1012 2.22823C4.85231 2.22768 4.60347 2.22884 4.35459 2.23043C4.24693 2.2296 4.24693 2.2296 4.1371 2.22874C3.52693 2.23581 2.94606 2.35946 2.53244 2.88504Z" fill="#C8C8C8"/>
</svg>
