<svg width="26" height="25" viewBox="0 0 26 25" fill="none" xmlns="http://www.w3.org/2000/svg">
<g clip-path="url(#clip0_147_2396)">
<path d="M12.7632 -0.0311983C12.9582 -0.0304472 13.1531 -0.0323014 13.3481 -0.0343626C14.7899 -0.039124 16.3238 0.2336 17.638 0.85164C17.801 0.927374 17.801 0.927374 17.9892 0.973869C18.1846 1.03217 18.3312 1.10988 18.5041 1.21684C18.759 1.37147 18.759 1.37147 19.0295 1.49477C19.2308 1.58212 19.3978 1.69387 19.5779 1.81803C19.6823 1.88809 19.7868 1.95004 19.8972 2.00996C20.0314 2.08844 20.1338 2.15803 20.2497 2.25738C20.3733 2.36176 20.4719 2.43236 20.6191 2.49464C20.6191 2.53043 20.6191 2.56622 20.6191 2.6031C20.6498 2.61715 20.6805 2.6312 20.7121 2.64568C21.1896 2.89951 21.5783 3.33426 21.9579 3.71142C22.0011 3.75406 22.0442 3.7967 22.0886 3.84063C22.8968 4.65296 22.8968 4.65296 22.8968 4.88075C22.9505 4.89865 23.0041 4.91655 23.0595 4.93498C23.1131 5.02618 23.1663 5.11768 23.2158 5.21122C23.2769 5.31551 23.3447 5.39792 23.4255 5.48745C23.5475 5.63997 23.5475 5.63997 23.5475 5.85689C23.5833 5.85689 23.6191 5.85689 23.656 5.85689C23.8832 6.15968 24.0548 6.48378 24.1983 6.83303C24.2518 6.93057 24.3061 7.0277 24.361 7.12452C24.4793 7.3389 24.5705 7.54178 24.6408 7.7757C24.6888 7.92524 24.7451 8.07062 24.8025 8.21678C24.9697 8.64631 25.102 9.07664 25.1998 9.52742C25.2303 9.66011 25.2662 9.79072 25.3022 9.92202C25.5162 10.7709 25.5278 11.6125 25.5303 12.4831C25.531 12.5727 25.531 12.5727 25.5317 12.664C25.5374 13.7117 25.4274 14.7207 25.1162 15.724C25.0668 15.8866 25.0286 16.049 24.9914 16.2148C24.914 16.5322 24.791 16.8213 24.658 17.1191C24.5892 17.274 24.5264 17.4293 24.466 17.5875C24.3792 17.8085 24.2726 18.0111 24.1521 18.2156C24.0865 18.3304 24.0865 18.3304 24.0377 18.4615C23.9764 18.6132 23.902 18.7484 23.8187 18.889C23.7907 18.9369 23.7628 18.9848 23.7339 19.0341C23.6954 19.0881 23.6954 19.0881 23.656 19.1432C23.6202 19.1432 23.5844 19.1432 23.5475 19.1432C23.5424 19.1829 23.5373 19.2225 23.5321 19.2633C23.4875 19.437 23.4213 19.525 23.3069 19.6618C23.1695 19.8251 23.1695 19.8251 23.0643 20.009C22.9811 20.1644 22.8597 20.2679 22.7341 20.3905C22.6664 20.4744 22.5998 20.5592 22.5341 20.6447C22.0258 21.2724 21.4131 21.9594 20.7276 22.397C20.6918 22.397 20.656 22.397 20.6191 22.397C20.6012 22.4507 20.5833 22.5044 20.5649 22.5597C20.4751 22.6136 20.3849 22.667 20.2925 22.716C20.1818 22.7786 20.0834 22.8493 19.9819 22.9258C19.8057 23.0478 19.8057 23.0478 19.643 23.0478C19.643 23.0836 19.643 23.1194 19.643 23.1562C19.0485 23.605 18.2715 23.9173 17.5822 24.1866C17.5498 24.1996 17.5174 24.2126 17.4841 24.226C16.3326 24.6869 15.0479 25.0011 13.8058 25.0149C13.7225 25.0159 13.7225 25.0159 13.6375 25.0169C12.4456 25.0287 11.3133 25.0261 10.1527 24.7289C10.0983 24.7159 10.0439 24.7028 9.98788 24.6894C9.36287 24.5392 8.78402 24.3462 8.20046 24.0782C8.12509 24.0501 8.04944 24.0229 7.97337 23.9968C7.73927 23.9125 7.5276 23.7889 7.31181 23.6661C7.17356 23.5885 7.17356 23.5885 7.03452 23.5361C6.88412 23.4757 6.75022 23.4015 6.61085 23.3189C6.53902 23.277 6.53902 23.277 6.46574 23.2342C6.41174 23.1956 6.41174 23.1956 6.35664 23.1562C6.35664 23.1205 6.35664 23.0847 6.35664 23.0478C6.31701 23.0427 6.27737 23.0376 6.23653 23.0323C6.06286 22.9877 5.97485 22.9216 5.83807 22.8071C5.67476 22.6698 5.67476 22.6698 5.49087 22.5646C5.33551 22.4814 5.23203 22.36 5.10935 22.2343C5.02433 22.1655 4.93841 22.0978 4.85176 22.031C4.23034 21.5266 3.64861 20.9538 3.19309 20.2941C3.1042 20.1614 3.1042 20.1614 2.94016 20.0651C2.88679 19.9744 2.83373 19.8835 2.78382 19.7908C2.72082 19.6813 2.64996 19.5831 2.57411 19.4822C2.45209 19.3059 2.45209 19.3059 2.45209 19.1432C2.4163 19.1432 2.3805 19.1432 2.34363 19.1432C2.12671 18.7772 2.12671 18.7772 2.12671 18.6552C2.09092 18.6552 2.05512 18.6552 2.01825 18.6552C2.00636 18.6275 1.99448 18.5998 1.98224 18.5713C1.87625 18.3283 1.76335 18.091 1.64203 17.8553C1.47077 17.5158 1.33598 17.1679 1.2048 16.8113C1.18648 16.7661 1.16817 16.7209 1.1493 16.6743C1.02058 16.3484 0.933781 16.0161 0.852305 15.6759C0.836891 15.6116 0.836891 15.6116 0.821165 15.5459C0.798829 15.4498 0.77733 15.3534 0.756423 15.2569C0.726394 15.12 0.694357 14.9842 0.66115 14.8481C0.480983 14.076 0.461238 13.321 0.465917 12.5306C0.466042 12.4648 0.466168 12.3991 0.466297 12.3313C0.470105 11.3232 0.540921 10.4068 0.82519 9.43607C0.853671 9.32769 0.881849 9.21923 0.909712 9.11069C1.02784 8.6618 1.15961 8.23304 1.36707 7.81616C1.43019 7.69237 1.43019 7.69237 1.46917 7.5143C1.54932 7.26048 1.68242 7.05234 1.81955 6.82519C1.88859 6.70671 1.94534 6.59747 1.99452 6.47037C2.08187 6.26908 2.19362 6.10206 2.31778 5.92193C2.38784 5.81758 2.44979 5.71303 2.50971 5.60269C2.58819 5.46851 2.65778 5.36605 2.75713 5.2502C2.86151 5.12659 2.93211 5.02795 2.99439 4.88075C3.03018 4.88075 3.06597 4.88075 3.10285 4.88075C3.12193 4.83671 3.12193 4.83671 3.1414 4.79178C3.23026 4.62914 3.34258 4.49254 3.46212 4.35201C3.48785 4.32176 3.51357 4.29151 3.54008 4.26034C4.05398 3.66654 4.6228 3.05085 5.27204 2.6031C5.30784 2.6031 5.34363 2.6031 5.3805 2.6031C5.3984 2.54941 5.4163 2.49572 5.43473 2.44041C5.52648 2.38644 5.61853 2.33289 5.71245 2.2828C5.83536 2.21125 5.9352 2.11945 6.04185 2.02606C6.21358 1.89671 6.40556 1.80319 6.59602 1.70449C6.72518 1.63308 6.83575 1.55302 6.95317 1.46427C7.04122 1.42653 7.12938 1.38899 7.21818 1.35306C7.35872 1.28993 7.49022 1.21482 7.62427 1.13889C7.84226 1.01834 8.04956 0.926712 8.28752 0.85503C8.43731 0.807136 8.5803 0.747742 8.72581 0.688103C9.04314 0.565456 9.36403 0.467265 9.69178 0.376281C9.75865 0.357321 9.75865 0.357321 9.82687 0.337978C9.98903 0.294125 10.1518 0.255082 10.3154 0.21698C10.3532 0.207868 10.391 0.198756 10.43 0.189367C11.2086 0.0057885 11.9648 -0.035469 12.7632 -0.0311983ZM11.1289 1.73542C11.0724 1.74648 11.0158 1.75754 10.9576 1.76894C10.1995 1.92186 9.50038 2.12047 8.79699 2.44041C8.69667 2.47943 8.59615 2.51794 8.49534 2.55565C8.29146 2.63616 8.11417 2.73669 7.93376 2.8609C7.82085 2.92848 7.82085 2.92848 7.64418 3.00114C7.41896 3.09504 7.22496 3.22466 7.02435 3.36232C6.98908 3.38608 6.95381 3.40985 6.91748 3.43434C6.82042 3.50003 6.72401 3.56656 6.62779 3.63347C6.58382 3.66367 6.53985 3.69386 6.49455 3.72498C6.46694 3.74847 6.43932 3.77196 6.41087 3.79616C6.41087 3.83195 6.41087 3.86774 6.41087 3.90462C6.37173 3.91692 6.33258 3.92922 6.29224 3.9419C6.10828 4.02775 6.01043 4.13907 5.86857 4.28423C5.79589 4.33946 5.7224 4.39365 5.64826 4.44692C5.47295 4.57495 5.34998 4.70758 5.21781 4.88075C5.17196 4.91655 5.1261 4.95234 5.07885 4.98921C4.9369 5.10569 4.87599 5.21164 4.78397 5.36882C4.73812 5.41356 4.69226 5.4583 4.64501 5.5044C4.51227 5.64055 4.47174 5.73787 4.40437 5.91112C4.35068 5.92902 4.29699 5.94692 4.24168 5.96535C4.16822 6.04668 4.16822 6.04668 4.1025 6.14986C4.07643 6.18871 4.05036 6.22756 4.0235 6.26759C3.99595 6.3099 3.9684 6.35221 3.94002 6.3958C3.91139 6.43944 3.88276 6.48308 3.85326 6.52804C3.44619 7.15634 3.06733 7.78613 2.83551 8.50103C2.78052 8.66759 2.71465 8.82431 2.64528 8.98528C1.73875 11.3233 1.84922 14.216 2.85182 16.5014C2.86712 16.536 2.88242 16.5705 2.89819 16.6061C2.95506 16.7373 3.0051 16.8707 3.0554 17.0045C3.13591 17.2084 3.23644 17.3857 3.36065 17.5661C3.42823 17.679 3.42823 17.679 3.50089 17.8557C3.59479 18.0809 3.72441 18.2749 3.86207 18.4755C3.88583 18.5108 3.9096 18.5461 3.93409 18.5824C3.99978 18.6794 4.06631 18.7759 4.13322 18.8721C4.16341 18.916 4.19361 18.96 4.22473 19.0053C4.24822 19.0329 4.27171 19.0605 4.29591 19.089C4.3317 19.089 4.36749 19.089 4.40437 19.089C4.42282 19.1477 4.42282 19.1477 4.44165 19.2076C4.5275 19.3916 4.63882 19.4894 4.78397 19.6313C4.83921 19.704 4.8934 19.7775 4.94666 19.8516C5.0747 20.0269 5.20733 20.1499 5.3805 20.2821C5.4163 20.3279 5.45209 20.3738 5.48896 20.421C5.60544 20.563 5.71139 20.6239 5.86857 20.7159C5.91331 20.7618 5.95805 20.8076 6.00415 20.8549C6.1403 20.9876 6.23762 21.0281 6.41087 21.0955C6.43772 21.176 6.43772 21.176 6.4651 21.2582C6.55537 21.337 6.55537 21.337 6.66868 21.4088C6.71059 21.4367 6.75249 21.4645 6.79567 21.4932C6.83982 21.5219 6.88396 21.5506 6.92945 21.5802C6.97212 21.6087 7.0148 21.6372 7.05877 21.6665C7.29156 21.8198 7.52516 21.957 7.77635 22.0777C7.92131 22.1484 8.06018 22.2294 8.20046 22.3089C8.56909 22.5089 8.94953 22.6554 9.34482 22.7937C9.44587 22.8302 9.54546 22.8706 9.64497 22.9111C11.5228 23.6169 13.6803 23.582 15.5986 23.0961C15.745 23.0597 15.8884 23.0298 16.0367 23.0037C16.4047 22.9241 16.7513 22.7513 17.0962 22.6043C17.2311 22.5478 17.3675 22.4961 17.5043 22.4445C17.7082 22.364 17.8854 22.2634 18.0659 22.1392C18.1788 22.0716 18.1788 22.0716 18.3563 21.9983C18.5761 21.9066 18.7658 21.7822 18.9617 21.648C18.9973 21.6239 19.0329 21.5999 19.0695 21.5751C19.3205 21.4044 19.567 21.2289 19.8057 21.0413C19.8795 20.9842 19.8795 20.9842 19.9548 20.926C20.0777 20.8267 20.0777 20.8267 20.1853 20.7159C20.2937 20.6074 20.2937 20.6074 20.4293 20.5024C20.5689 20.395 20.5689 20.395 20.6733 20.2549C20.7818 20.1194 20.7818 20.1194 20.9208 20.0109C21.0587 19.9102 21.0587 19.9102 21.1343 19.7669C21.2156 19.6313 21.2156 19.6313 21.3478 19.5262C21.5105 19.3953 21.5923 19.2659 21.7037 19.089C21.7621 19.0051 21.8209 18.9216 21.88 18.8382C21.9478 18.7411 22.0156 18.6439 22.0833 18.5467C22.1188 18.4962 22.1543 18.4458 22.1909 18.3938C22.6014 17.7972 22.9017 17.1575 23.1679 16.486C23.1935 16.4265 23.2191 16.3671 23.2455 16.3059C23.5363 15.5962 23.6777 14.8515 23.8187 14.0998C23.8309 14.0357 23.8309 14.0357 23.8433 13.9702C24.0878 12.6223 23.9294 11.218 23.5958 9.90126C23.5594 9.75491 23.5295 9.61144 23.5035 9.46318C23.4238 9.09521 23.2511 8.74855 23.1041 8.40364C23.0475 8.26881 22.9959 8.13233 22.9442 7.99559C22.8637 7.79172 22.7632 7.61442 22.639 7.43401C22.5714 7.3211 22.5714 7.3211 22.4987 7.14443C22.4048 6.91921 22.2752 6.72521 22.1376 6.5246C22.1019 6.4717 22.1019 6.4717 22.0655 6.41773C21.9998 6.32067 21.9333 6.22426 21.8664 6.12804C21.8211 6.06209 21.8211 6.06209 21.7749 5.9948C21.7514 5.96719 21.7279 5.93957 21.7037 5.91112C21.6679 5.91112 21.6321 5.91112 21.5953 5.91112C21.5852 5.87533 21.5751 5.83954 21.5647 5.80266C21.4709 5.60677 21.3466 5.47019 21.2012 5.31036C21.1072 5.20613 21.1072 5.20613 20.9919 5.057C20.8924 4.92929 20.8924 4.92929 20.7547 4.82652C20.6191 4.71806 20.6191 4.71806 20.5107 4.5791C20.4099 4.44121 20.4099 4.44121 20.2666 4.36557C20.131 4.28423 20.131 4.28423 20.026 4.15204C19.8951 3.98939 19.7657 3.90755 19.5887 3.79616C19.5049 3.73776 19.4213 3.67897 19.3379 3.61991C19.2408 3.55207 19.1436 3.48428 19.0464 3.41655C18.996 3.38103 18.9455 3.34552 18.8935 3.30893C18.3482 2.9338 17.7682 2.64646 17.1548 2.39995C17.0335 2.35116 16.9129 2.30052 16.7929 2.2487C16.3845 2.07422 15.9942 1.95653 15.5543 1.87904C15.3723 1.84631 15.1957 1.80456 15.0165 1.75914C13.7501 1.46785 12.3997 1.48666 11.1289 1.73542Z" fill="#C8C8C8"/>
<path d="M14.7622 5.42301C14.9588 5.49676 15.1057 5.59777 15.2435 5.75856C15.3588 6.04683 15.3978 6.32587 15.3045 6.62624C15.1995 6.8691 15.0215 7.00031 14.8165 7.15837C14.6545 7.31223 14.5072 7.47339 14.3623 7.64305C14.2111 7.81796 14.0518 7.96772 13.874 8.11502C13.6828 8.27535 13.5181 8.45495 13.359 8.64631C13.2188 8.81253 13.0668 8.95047 12.8998 9.08925C12.7082 9.25056 12.5426 9.43035 12.3829 9.62244C12.2426 9.78867 12.0906 9.92661 11.9236 10.0654C11.7321 10.2267 11.5664 10.4065 11.4068 10.5986C11.2665 10.7648 11.1145 10.9027 10.9475 11.0415C10.7559 11.2028 10.5903 11.3826 10.4306 11.5747C10.2906 11.7406 10.139 11.8784 9.97222 12.0168C9.7892 12.1712 9.63466 12.3281 9.50194 12.5271C9.54892 12.564 9.5959 12.601 9.6443 12.639C9.80721 12.7743 9.93985 12.9239 10.0752 13.0862C10.2374 13.2781 10.4174 13.4447 10.6103 13.605C10.7765 13.7452 10.9144 13.8972 11.0532 14.0642C11.2145 14.2558 11.3943 14.4214 11.5864 14.5811C11.7526 14.7214 11.8906 14.8734 12.0294 15.0404C12.1907 15.2319 12.3704 15.3976 12.5625 15.5572C12.7288 15.6975 12.8667 15.8495 13.0055 16.0165C13.1668 16.2081 13.3466 16.3737 13.5387 16.5334C13.705 16.6737 13.843 16.8258 13.9818 16.9928C14.1522 17.1952 14.3449 17.3685 14.5453 17.54C14.6798 17.656 14.8001 17.771 14.9114 17.9095C15.0215 18.0593 15.0215 18.0593 15.152 18.1365C15.3079 18.2709 15.3233 18.4012 15.3588 18.6009C15.3588 18.8843 15.3314 19.139 15.1419 19.3601C14.86 19.5646 14.675 19.621 14.3284 19.577C14.1555 19.4821 14.1555 19.4821 14.003 19.3601C13.9594 19.3288 13.9158 19.2975 13.8708 19.2652C13.7128 19.1264 13.5807 18.9747 13.444 18.8153C13.2838 18.6303 13.1158 18.4661 12.9252 18.3128C12.7515 18.1713 12.6113 18.0071 12.4659 17.8372C12.3067 17.6528 12.1389 17.4894 11.9491 17.3367C11.7753 17.1951 11.635 17.0308 11.4896 16.8609C11.3215 16.6661 11.1398 16.4942 10.9424 16.33C10.7762 16.1897 10.6383 16.0377 10.4995 15.8707C10.3382 15.6792 10.1584 15.5135 9.96629 15.3539C9.80006 15.2136 9.66212 15.0616 9.52334 14.8946C9.36304 14.7042 9.18467 14.5395 8.99354 14.3811C8.81157 14.2276 8.65957 14.0573 8.50526 13.8765C8.34615 13.6917 8.18047 13.5295 7.98689 13.3813C7.74561 13.1807 7.53523 12.927 7.46747 12.6155C7.45384 12.3267 7.52364 12.155 7.71235 11.9306C7.80156 11.8391 7.89204 11.7487 7.9835 11.6595C8.03479 11.5988 8.0856 11.5378 8.13603 11.4764C8.28958 11.2944 8.46 11.1423 8.64083 10.9879C8.83512 10.8207 9.00623 10.6394 9.16978 10.4427C9.31005 10.2764 9.46206 10.1385 9.62904 9.99972C9.82062 9.83842 9.98627 9.65863 10.1459 9.46653C10.2862 9.30031 10.4382 9.16237 10.6052 9.02358C10.7956 8.86329 10.9603 8.68492 11.1187 8.49378C11.2722 8.31182 11.4425 8.15982 11.6233 8.0055C11.8073 7.84707 11.9698 7.67965 12.1219 7.49053C12.2635 7.31686 12.4276 7.17659 12.5975 7.03127C12.782 6.87198 12.9454 6.70425 13.0981 6.51439C13.2396 6.34065 13.4037 6.20023 13.5741 6.05534C13.6867 5.95993 13.6867 5.95993 13.8166 5.82296C14.1046 5.54234 14.3413 5.3337 14.7622 5.42301Z" fill="#C8C8C8"/>
<path d="M15.142 6.67029C15.1688 6.75082 15.1688 6.75082 15.1962 6.83298C15.1719 6.85332 15.1477 6.87366 15.1227 6.89462C14.8478 7.12727 14.5965 7.36893 14.3624 7.64304C14.2112 7.81795 14.0519 7.96771 13.8741 8.11501C13.6829 8.27533 13.5182 8.45494 13.3592 8.64629C13.2189 8.81252 13.0669 8.95045 12.8999 9.08924C12.7083 9.25055 12.5427 9.43034 12.383 9.62243C12.2428 9.78865 12.0907 9.92659 11.9238 10.0654C11.7322 10.2267 11.5665 10.4065 11.4069 10.5986C11.2666 10.7648 11.1146 10.9027 10.9476 11.0415C10.756 11.2028 10.5904 11.3826 10.4307 11.5747C10.2907 11.7406 10.1391 11.8784 9.97232 12.0168C9.78931 12.1712 9.63477 12.328 9.50205 12.5271C9.54903 12.564 9.596 12.6009 9.6444 12.639C9.80732 12.7743 9.93996 12.9238 10.0753 13.0862C10.2375 13.2781 10.4175 13.4447 10.6104 13.6049C10.7766 13.7452 10.9145 13.8972 11.0533 14.0642C11.2146 14.2558 11.3944 14.4214 11.5865 14.5811C11.7527 14.7213 11.8907 14.8734 12.0295 15.0403C12.1908 15.2319 12.3706 15.3976 12.5627 15.5572C12.7289 15.6975 12.8668 15.8495 13.0056 16.0165C13.1669 16.2081 13.3467 16.3737 13.5388 16.5334C13.7051 16.6737 13.8431 16.8258 13.982 16.9928C14.1523 17.1952 14.345 17.3685 14.5454 17.54C14.6811 17.657 14.8023 17.7734 14.9149 17.9128C15.028 18.0665 15.028 18.0665 15.1962 18.167C15.1783 18.2207 15.1604 18.2744 15.142 18.3297C14.3907 17.5848 13.6402 16.8391 12.8907 16.0925C12.5426 15.7458 12.1943 15.3995 11.8455 15.0537C11.5415 14.7524 11.2379 14.4506 10.935 14.1483C10.7745 13.9881 10.6137 13.8282 10.4524 13.6689C10.3007 13.519 10.1497 13.3685 9.99909 13.2175C9.9436 13.1621 9.88788 13.1069 9.83191 13.052C9.75575 12.9772 9.6805 12.9014 9.6053 12.8257C9.56286 12.7835 9.52042 12.7413 9.47669 12.6978C9.39359 12.5814 9.39359 12.5814 9.39355 12.4728C9.4655 12.3291 9.55658 12.2357 9.67051 12.1222C9.74249 12.0499 9.74249 12.0499 9.81592 11.9761C9.8695 11.9231 9.92309 11.8701 9.97668 11.8171C10.0328 11.761 10.0889 11.7049 10.145 11.6487C10.2974 11.4963 10.4502 11.3444 10.6031 11.1926C10.7629 11.0339 10.9221 10.8747 11.0815 10.7156C11.3833 10.4143 11.6855 10.1135 11.9878 9.81274C12.332 9.47037 12.6757 9.12754 13.0194 8.78467C13.7264 8.07936 14.434 7.37463 15.142 6.67029Z" fill="#C8C8C8"/>
<path d="M11.6715 7.9718C11.6715 8.13449 11.6715 8.13449 11.5726 8.25288C11.5033 8.3217 11.5033 8.3217 11.4325 8.39191C11.3944 8.43003 11.3944 8.43003 11.3556 8.46892C11.2714 8.55294 11.1868 8.63636 11.102 8.71979C11.0436 8.77789 10.9853 8.83601 10.927 8.89418C10.7733 9.04726 10.6191 9.19984 10.4648 9.35233C10.3075 9.50798 10.1506 9.6641 9.99372 9.82017C9.68573 10.1264 9.37724 10.4321 9.06842 10.7375C9.03263 10.7196 8.99684 10.7017 8.95996 10.6833C9.16877 10.4332 9.38032 10.2057 9.63127 9.9978C9.82246 9.83747 9.9872 9.65787 10.1462 9.46651C10.2865 9.30029 10.4385 9.16235 10.6055 9.02357C10.7971 8.86226 10.9627 8.68247 11.1224 8.49038C11.2873 8.29454 11.4727 8.13237 11.6715 7.9718Z" fill="#1A1A1A"/>
<path d="M5.00129 2.81995C5.03708 2.83784 5.07287 2.85574 5.10975 2.87418C4.86715 3.12341 4.6173 3.35594 4.35053 3.57917C4.31474 3.56127 4.27894 3.54337 4.24207 3.52494C4.4854 3.27604 4.72936 3.03749 5.00129 2.81995ZM4.02515 3.74186C4.02515 3.93405 3.99207 3.96434 3.86924 4.10452C3.8403 4.13828 3.81136 4.17205 3.78154 4.20683C3.69977 4.28415 3.69977 4.28415 3.59131 4.28415C3.68084 4.05138 3.84823 3.91109 4.02515 3.74186Z" fill="#1D1D1D"/>
<path d="M20.4023 4.4469C20.5767 4.52328 20.6909 4.6152 20.8226 4.75194C20.8725 4.80332 20.8725 4.80332 20.9235 4.85574C20.9608 4.89496 20.9608 4.89496 20.9989 4.93497C20.981 4.97076 20.9631 5.00655 20.9446 5.04343C20.7202 4.86446 20.5332 4.70865 20.4023 4.4469Z" fill="#1C1C1C"/>
<path d="M5.00098 19.9567C5.25852 20.1088 5.39109 20.2414 5.54328 20.499C5.31896 20.4127 5.15108 20.2492 5.00098 20.0651C5.00098 20.0293 5.00098 19.9935 5.00098 19.9567Z" fill="#1B1B1B"/>
<path d="M20.9446 19.9567C20.9446 20.1194 20.9446 20.1194 20.8616 20.2183C20.8263 20.2516 20.7911 20.285 20.7548 20.3193C20.7196 20.3531 20.6843 20.3869 20.648 20.4216C20.6206 20.4472 20.5932 20.4727 20.565 20.499C20.5292 20.4811 20.4934 20.4632 20.4565 20.4447C20.5071 20.3835 20.558 20.3226 20.6091 20.2617C20.6374 20.2277 20.6657 20.1938 20.6949 20.1588C20.7819 20.0651 20.7819 20.0651 20.9446 19.9567Z" fill="#1C1C1C"/>
<path d="M5.43482 4.5011C5.47061 4.51899 5.5064 4.53689 5.54328 4.55533C5.49403 4.61672 5.44421 4.67763 5.39414 4.73835C5.36646 4.77233 5.33878 4.8063 5.31026 4.84131C5.21345 4.93945 5.12682 4.98923 5.00098 5.0434C5.09051 4.81062 5.25789 4.67033 5.43482 4.5011Z" fill="#C8C8C8"/>
</g>
<defs>
<clipPath id="clip0_147_2396">
<rect width="25" height="25" fill="white" transform="translate(0.5)"/>
</clipPath>
</defs>
</svg>
